<svg id="Layer_1" data-name="Layer 1" xmlns="http://www.w3.org/2000/svg" viewBox="0 0 1503.51 185.11"><title>Finn Qoute</title><path d="M83,240.93c-1.37,0-3,1-3-19.58,0-27.16,2.86-26.18,3.79-26.18H98c9.73,0,11.21,4.51,11.21,8,0,6.05-6.26,9.57-6.26,11.28,0,1.92,8.85,6.38,8.85,15.83,0,5.39-3.25,10.62-12.26,10.62Zm13.42-29.86c1.6-1.16,3.91-3.85,3.91-6.11,0-2.64-2.31-3.3-4.4-3.3-5.45,0-7.92,2.37-7.92,11,0,1.1-.11,2.53,1.43,2.53a7.27,7.27,0,0,0,3-1.21ZM90.7,221.52c-1.48.82-2.36,1.15-2.36,3,0,8.35,2.09,9.4,6.6,9.4,4,0,8-1.54,8-5.83,0-3.9-4.84-9.4-6.32-9.4a6,6,0,0,0-2.31.93Z" transform="translate(-79.98 -59.34)"/><path d="M139.32,205.73c2.31,0,2.36,11.55,2.36,16.78,0,20.18-1.43,19.24-5.38,19.24-5.78,0-1.38-3.08-4.51-3.08-.5,0-1.76,1.16-2.75,1.82a7.49,7.49,0,0,1-4.07,1.26c-4.57,0-8.8-2.86-8.8-18.58,0-.94.38-17.44,2.69-17.44h5.06c.72,0,2.2-.27,2.2.83,0,.82-2.53,6.32-2.53,16.72,0,3.08,0,11.43,4.68,11.43,1.81,0,6-.55,6-12.37,0-6.6-1.92-15.07-1.92-16,0-.71,1.26-.66,1.87-.66Z" transform="translate(-79.98 -59.34)"/><path d="M159.62,198.86c0,1.48-1.65,4.84-1.65,5.5,0,1,.27,1.65,1.1,1.65s1.37-.28,2.09-.28c2.09,0,2.14,1.49,2.14,3.36,0,.77,0,2.86-1.15,2.86a20.3,20.3,0,0,0-2.53-.5c-3,0-3,3.52-3,8.42,0,14.62,3.08,17,3.08,18s-6.38,3.9-7.64,3.9c-2.09,0-2.64-12.26-2.64-15.28,0-6.77.33-9.41.33-10.45,0-1.65.49-4.57-2-4.57-1,0-1.54.66-2.15.66s-.66-.71-.66-1.7c0-4.18,1.21-4.68,3.3-4.68a8.32,8.32,0,0,0,1.05.22c1.7,0,1.87-2.69,2.14-4.62.28-2.09,6.44-3.63,7.54-3.63C159.34,197.7,159.62,197.81,159.62,198.86Z" transform="translate(-79.98 -59.34)"/><path d="M186.57,240.93c-1.38,0-3,1-3-19.58,0-27.16,2.86-26.18,3.8-26.18h5.94c.71,0,2.09-.16,2.09.88,0,.55-2.92,9.74-2.92,20.35a106,106,0,0,0,2.75,23.92c0,.55-.33.61-.82.61h-7.81Z" transform="translate(-79.98 -59.34)"/><path d="M206.53,195.4a3.77,3.77,0,0,1,2.09-1.05c3.08,0,5.44,3.35,5.44,6.21,0,6.33-6.7,9-9.89,9-.17,0-.44-.11-.44-.28a9,9,0,0,0,1.43-4.18c0-4.62-4.29-4.4-4.29-4.95,0-.27.93-.93,1.1-1Z" transform="translate(-79.98 -59.34)"/><path d="M222.37,240.93c-1.87,0-3,1.76-3-14.52,0-23.15-.72-22.44,6.76-22.44,1.16,0,2.37.06,2.37.88,0,.66-.66,1.71-.66,2.48a1,1,0,0,0,1.1.93c.66,0,1.43-.66,2.64-1.26a10.39,10.39,0,0,1,5.16-1.27c2.7,0,4.46,2.53,5.83,2.53a6.16,6.16,0,0,0,3.25-1,10.35,10.35,0,0,1,5.06-1.54c10.12,0,9.9,13.26,9.9,20.3,0,16.77-2.09,14.9-3.69,14.9h-3.74c-.55,0-2.09.11-2.09-.88s2.09-7,2.09-16.22c0-10.51-3.74-11.61-5.83-11.61-1.92,0-3.74-.16-3.74,8.91,0,19.74-.27,19.8-2,19.8h-4.95c-1.05,0-1.93.22-1.93-.55s2.09-11.88,2.09-17.1c0-3.3,0-11.06-4.5-11.06-4.13,0-5.67,5.06-5.67,13.26,0,11.05,1.54,13.14,1.54,14.68,0,.93-1,.77-1.59.77Z" transform="translate(-79.98 -59.34)"/><path d="M298.76,240.93c-.71,0-1.92.16-1.92-.88a66.79,66.79,0,0,0,2.8-19c0-3.9-.33-8.8-4.07-8.8-2.09,0-6.38,1.38-6.38,12.27,0,6.59,1.6,15.06,1.6,15.72s-.94.72-1.49.72h-4.67c-2,0-2.86.93-2.86-13.58,0-24.92,1.93-23.38,6.16-23.38,1.92,0,3.9-.27,3.9,1,0,.55-.49,1.21-.49,2,0,.55.27,1.05.82,1.05.94,0,3.47-2.26,7-2.26,1.54,0,7.92.22,7.92,14.69,0,21.61-1.71,20.51-3.58,20.51Z" transform="translate(-79.98 -59.34)"/><path d="M310.75,223.28c0-8.86,4.24-18.37,13.81-18.37s13.8,9.51,13.8,18.37c0,12.92-7.48,18.47-13.8,18.47S310.75,236.2,310.75,223.28Zm20.79-1.38c0-4.34-1.54-10.5-7-10.5s-7,6.16-7,10.5,1.43,10.67,7,10.67S331.54,226.3,331.54,221.9Z" transform="translate(-79.98 -59.34)"/><path d="M354.92,198.86c0,1.48-1.65,4.84-1.65,5.5,0,1,.27,1.65,1.1,1.65s1.37-.28,2.09-.28c2.09,0,2.14,1.49,2.14,3.36,0,.77,0,2.86-1.15,2.86a20.3,20.3,0,0,0-2.53-.5c-3,0-3,3.52-3,8.42,0,14.62,3.08,17,3.08,18s-6.38,3.9-7.64,3.9c-2.09,0-2.64-12.26-2.64-15.28,0-6.77.33-9.41.33-10.45,0-1.65.49-4.57-2-4.57-1,0-1.54.66-2.15.66s-.66-.71-.66-1.7c0-4.18,1.21-4.68,3.3-4.68a8.32,8.32,0,0,0,1.05.22c1.7,0,1.87-2.69,2.14-4.62.28-2.09,6.44-3.63,7.54-3.63C354.64,197.7,354.92,197.81,354.92,198.86Z" transform="translate(-79.98 -59.34)"/><path d="M390.83,198.86c0,1.48-1.65,4.84-1.65,5.5,0,1,.28,1.65,1.1,1.65s1.38-.28,2.09-.28c2.09,0,2.15,1.49,2.15,3.36,0,.77,0,2.86-1.16,2.86a20.3,20.3,0,0,0-2.53-.5c-3,0-3,3.52-3,8.42,0,14.62,3.08,17,3.08,18s-6.38,3.9-7.65,3.9c-2.09,0-2.64-12.26-2.64-15.28,0-6.77.33-9.41.33-10.45,0-1.65.5-4.57-2-4.57-1,0-1.54.66-2.14.66s-.66-.71-.66-1.7c0-4.18,1.21-4.68,3.3-4.68a8.09,8.09,0,0,0,1,.22c1.71,0,1.87-2.69,2.15-4.62.27-2.09,6.43-3.63,7.53-3.63C390.56,197.7,390.83,197.81,390.83,198.86Z" transform="translate(-79.98 -59.34)"/><path d="M407.28,194c.49,0,.88.61.88,1.15,0,.77-2.09,6.16-2.09,10.56,0,.66,0,1.71.93,1.71a8,8,0,0,0,2.53-1.21,10,10,0,0,1,4.62-1.32c5,0,8.69,3.57,8.69,16.83,0,5.28-.77,19.19-2.47,19.19h-5.72c-.5,0-2,.16-2-.72,0-.38,2.75-11.27,2.75-18.58,0-8.53-1.43-10.23-4.13-10.23-5.61,0-5.72,8.58-5.72,12.48,0,11,1.21,14.57,1.21,16.17,0,.88-1,.88-1.59.88h-5.45c-1.59,0-1.59,1.87-1.59-22.55,0-4.4.11-24.36,3.13-24.36Z" transform="translate(-79.98 -59.34)"/><path d="M440.11,218.05c1.6-.27,2.86-.55,2.86-2.36,0-2.81-2.91-4.29-5.33-4.29-5.61,0-4.79,4.73-6,4.73-1.76,0-3.68-2.15-3.68-4.51,0-4.07,4.56-6.71,9.62-6.71,1.76,0,9.3-.06,12.1,7.64,1.15,3.19,1.26,19.47,1.26,21.39,0,2.42.44,3.85.44,5.72,0,1.16-5.16,1.27-10.06,1.27-13.25,0-14.19-6.82-14.19-10.12C427.13,223.88,434,219.1,440.11,218.05Zm3.41,9.63c0-1.93.33-4.24-2.31-4.24-3.24,0-6.65,2.75-6.65,6.11,0,3.08,2.69,4.89,5.61,4.89,3.24,0,3.35-1.65,3.35-4.34Z" transform="translate(-79.98 -59.34)"/><path d="M469.32,198.86c0,1.48-1.65,4.84-1.65,5.5,0,1,.27,1.65,1.1,1.65s1.37-.28,2.08-.28c2.09,0,2.15,1.49,2.15,3.36,0,.77,0,2.86-1.15,2.86a20.3,20.3,0,0,0-2.53-.5c-3,0-3,3.52-3,8.42,0,14.62,3.08,17,3.08,18s-6.38,3.9-7.64,3.9c-2.09,0-2.64-12.26-2.64-15.28,0-6.77.33-9.41.33-10.45,0-1.65.49-4.57-2-4.57-1,0-1.54.66-2.15.66s-.66-.71-.66-1.7c0-4.18,1.21-4.68,3.3-4.68A8.32,8.32,0,0,0,459,206c1.7,0,1.87-2.69,2.14-4.62.28-2.09,6.44-3.63,7.54-3.63C469,197.7,469.32,197.81,469.32,198.86Z" transform="translate(-79.98 -59.34)"/><path d="M494.12,240.93c-1.92,0-1.7-18.42-1.7-19.69,0-2.58-.22-27.22,2.25-27.22h5.89a1.16,1.16,0,0,1,1.32,1.21c0,1.1-2,6.16-2,20.46,0,1.92,0,4.4.72,4.4,1.86,0,6.87-7.26,6.87-13.2,0-1.38.55-1.16,1.7-1.16h3.36c1.1,0,2.36-.33,2.36,1.21,0,7.59-6,12.54-6,13.64s2.25,2,4.51,4.84a22.19,22.19,0,0,1,4.51,14c0,1.65-1,1.49-2.42,1.49H511c-1.48,0-2,0-2-1.71-.06-7.59-3.63-13.69-5.28-13.69a3.54,3.54,0,0,0-3.24,3.47c0,6.7,1.37,10.28,1.37,11.27,0,.6-.55.66-1.37.66Z" transform="translate(-79.98 -59.34)"/><path d="M523.55,240.93c-2.7,0-2.92,1.15-2.92-18.2,0-18.81.88-17,2.7-17h3c2.31,0,2.36.17,2.36.83,0,2-.66,4.07-.66,10.06a114.64,114.64,0,0,0,2.15,22.88c0,1.76-1.65,1.43-2.92,1.43Zm-2.31-43.12c0-2.36,2-3.79,4.23-3.79s4.23,1.43,4.23,3.79-2,3.63-4.23,3.63S521.24,200.18,521.24,197.81Z" transform="translate(-79.98 -59.34)"/><path d="M552.25,240.93c-.71,0-1.92.16-1.92-.88a66.79,66.79,0,0,0,2.8-19c0-3.9-.33-8.8-4.07-8.8-2.09,0-6.38,1.38-6.38,12.27,0,6.59,1.6,15.06,1.6,15.72s-.94.72-1.49.72h-4.67c-2,0-2.86.93-2.86-13.58,0-24.92,1.93-23.38,6.16-23.38,1.92,0,3.9-.27,3.9,1,0,.55-.49,1.21-.49,2,0,.55.27,1.05.82,1.05.94,0,3.47-2.26,7-2.26,1.54,0,7.92.22,7.92,14.69,0,21.61-1.71,20.51-3.58,20.51Z" transform="translate(-79.98 -59.34)"/><path d="M575.79,240.93c-6.16,0-11.55-5.45-11.55-16.55,0-12.6,8.36-19.47,13.2-19.47,1.16,0,2.37,1.26,3.14,1.26,1.1,0,1.26-2,1.26-2.86,0-4.45-1.37-6.43-1.37-8.52,0-.77,1.37-.77,1.92-.77h5.72c2.48,0,2.26,24.64,2.26,27.22,0,1.27.22,19.69-1.71,19.69Zm7.15-20.46c0-9.68-1.48-10.34-3.52-10.34-2.36,0-7.75,3.08-7.75,13.09,0,3.8,1.43,9.68,6.1,9.68C583.71,232.9,582.94,224.43,582.94,220.47Z" transform="translate(-79.98 -59.34)"/><path d="M610,223.28c0-8.86,4.24-18.37,13.81-18.37s13.8,9.51,13.8,18.37c0,12.92-7.48,18.47-13.8,18.47S610,236.2,610,223.28Zm20.79-1.38c0-4.34-1.54-10.5-7-10.5s-7,6.16-7,10.5,1.43,10.67,7,10.67S630.79,226.3,630.79,221.9Z" transform="translate(-79.98 -59.34)"/><path d="M645.64,240.93c-.82,0-1.81,1.65-1.81-16.44,0-2.75.16-5.5.16-8.25,0-1.65.5-4.79-2-4.79-1,0-1.54.66-2.14.66s-.66-.71-.66-1.7c0-4.18,1.21-4.68,3.3-4.68,2.47,0,2.47-3.68,3.24-6.16a8.08,8.08,0,0,1,7.32-5.55c2.14,0,4.95-.27,4.95,1.32,0,.82-.66,6.21-1.6,6.21-.77,0-1-.49-1.59-.49-1.54,0-2.59,2.25-2.59,3.52a1.38,1.38,0,0,0,1.38,1.43c.71,0,1.37-.28,2.09-.28,2.09,0,2.14,1.49,2.14,3.36,0,.77,0,2.86-1.15,2.86a20.3,20.3,0,0,0-2.53-.5c-3,0-2.92,3.74-2.92,5.89,0,7.26,2,21.88,2,22.6,0,1.21-.77,1-1.76,1Z" transform="translate(-79.98 -59.34)"/><path d="M680,240.93c-1.87,0-3,1.76-3-14.52,0-23.15-.72-22.44,6.76-22.44,1.16,0,2.37.06,2.37.88,0,.66-.66,1.71-.66,2.48a1,1,0,0,0,1.1.93c.66,0,1.43-.66,2.64-1.26a10.39,10.39,0,0,1,5.16-1.27c2.7,0,4.46,2.53,5.83,2.53a6.16,6.16,0,0,0,3.25-1,10.35,10.35,0,0,1,5.06-1.54c10.12,0,9.9,13.26,9.9,20.3,0,16.77-2.09,14.9-3.69,14.9h-3.74c-.55,0-2.09.11-2.09-.88s2.09-7,2.09-16.22c0-10.51-3.74-11.61-5.83-11.61-1.92,0-3.74-.16-3.74,8.91,0,19.74-.27,19.8-2,19.8h-5c-1,0-1.93.22-1.93-.55s2.09-11.88,2.09-17.1c0-3.3,0-11.06-4.51-11.06-4.12,0-5.66,5.06-5.66,13.26,0,11.05,1.54,13.14,1.54,14.68,0,.93-1,.77-1.59.77Z" transform="translate(-79.98 -59.34)"/><path d="M722,223.28c0-8.86,4.23-18.37,13.8-18.37s13.8,9.51,13.8,18.37c0,12.92-7.48,18.47-13.8,18.47S722,236.2,722,223.28Zm20.78-1.38c0-4.34-1.54-10.5-7-10.5s-7,6.16-7,10.5,1.43,10.67,7,10.67S742.82,226.3,742.82,221.9Z" transform="translate(-79.98 -59.34)"/><path d="M756.36,240.93c-1.87,0-3,1.76-3-14.52,0-23.15-.71-22.44,6.77-22.44,1.15,0,2.36.06,2.36.88,0,.66-.66,1.71-.66,2.48a1,1,0,0,0,1.1.93c.66,0,1.43-.66,2.64-1.26a10.46,10.46,0,0,1,5.17-1.27c2.69,0,4.45,2.53,5.83,2.53a6.11,6.11,0,0,0,3.24-1,10.38,10.38,0,0,1,5.06-1.54c10.12,0,9.9,13.26,9.9,20.3,0,16.77-2.09,14.9-3.68,14.9h-3.74c-.55,0-2.09.11-2.09-.88s2.09-7,2.09-16.22c0-10.51-3.74-11.61-5.83-11.61-1.93,0-3.74-.16-3.74,8.91,0,19.74-.28,19.8-2,19.8h-5c-1,0-1.92.22-1.92-.55s2.09-11.88,2.09-17.1c0-3.3,0-11.06-4.51-11.06-4.13,0-5.66,5.06-5.66,13.26,0,11.05,1.53,13.14,1.53,14.68,0,.93-1,.77-1.59.77Z" transform="translate(-79.98 -59.34)"/><path d="M802.83,240.93c-1.87,0-3,1.76-3-14.52,0-23.15-.72-22.44,6.76-22.44,1.15,0,2.36.06,2.36.88,0,.66-.66,1.71-.66,2.48a1,1,0,0,0,1.1.93c.66,0,1.43-.66,2.64-1.26a10.46,10.46,0,0,1,5.17-1.27c2.7,0,4.46,2.53,5.83,2.53a6.16,6.16,0,0,0,3.25-1,10.35,10.35,0,0,1,5.06-1.54c10.12,0,9.9,13.26,9.9,20.3,0,16.77-2.09,14.9-3.69,14.9h-3.74c-.55,0-2.09.11-2.09-.88s2.09-7,2.09-16.22c0-10.51-3.74-11.61-5.83-11.61-1.92,0-3.74-.16-3.74,8.91,0,19.74-.27,19.8-2,19.8h-5c-1,0-1.93.22-1.93-.55s2.09-11.88,2.09-17.1c0-3.3,0-11.06-4.51-11.06-4.12,0-5.66,5.06-5.66,13.26,0,11.05,1.54,13.14,1.54,14.68,0,.93-1,.77-1.6.77Z" transform="translate(-79.98 -59.34)"/><path d="M845.18,234.82c0-.66.11-2.25,1.59-2.25,6.33,0,8-2,8-2.75,0-2.31-9.57-6.21-9.57-21.5,0-2.48-.06-2.59,2.09-2.59h4.51c.71,0,1.92-.16,1.92,1,0,.77-.49,2.48-.49,4.13,0,6.43,5.39,12.48,6.49,12.48,2.2,0,3.68-6.6,3.68-10.83,0-2.75-.6-5.06-.6-5.94s1.37-.83,2-.83h4.89c1.05.17.88,1.93.88,4.29.5,16.12-11.93,31.73-24,31.73-1.27,0-1.32-.82-1.32-2.09Z" transform="translate(-79.98 -59.34)"/><path d="M874.66,230.31a3.82,3.82,0,0,1,2.09-1c3.08,0,5.44,3.36,5.44,6.21,0,6.33-6.71,9-9.9,9-.16,0-.44-.11-.44-.28a9,9,0,0,0,1.43-4.18c0-4.62-4.29-4.4-4.29-5,0-.27.94-.93,1.1-1Z" transform="translate(-79.98 -59.34)"/><path d="M914.31,218.05c1.6-.27,2.86-.55,2.86-2.36,0-2.81-2.91-4.29-5.33-4.29-5.61,0-4.79,4.73-6,4.73-1.76,0-3.68-2.15-3.68-4.51,0-4.07,4.56-6.71,9.62-6.71,1.76,0,9.29-.06,12.1,7.64,1.15,3.19,1.27,19.47,1.27,21.39,0,2.42.43,3.85.43,5.72,0,1.16-5.16,1.27-10.06,1.27-13.25,0-14.19-6.82-14.19-10.12C901.33,223.88,908.15,219.1,914.31,218.05Zm3.41,9.63c0-1.93.33-4.24-2.31-4.24-3.24,0-6.65,2.75-6.65,6.11,0,3.08,2.69,4.89,5.61,4.89,3.24,0,3.35-1.65,3.35-4.34Z" transform="translate(-79.98 -59.34)"/><path d="M947.64,240.93c-.71,0-1.92.16-1.92-.88a66.79,66.79,0,0,0,2.8-19c0-3.9-.33-8.8-4.07-8.8-2.09,0-6.38,1.38-6.38,12.27,0,6.59,1.6,15.06,1.6,15.72s-.94.72-1.49.72h-4.67c-2,0-2.86.93-2.86-13.58,0-24.92,1.92-23.38,6.16-23.38,1.92,0,3.9-.27,3.9,1,0,.55-.49,1.21-.49,2,0,.55.27,1.05.82,1.05.94,0,3.47-2.26,7-2.26,1.54,0,7.92.22,7.92,14.69,0,21.61-1.7,20.51-3.57,20.51Z" transform="translate(-79.98 -59.34)"/><path d="M971.18,240.93c-6.16,0-11.55-5.45-11.55-16.55,0-12.6,8.36-19.47,13.2-19.47,1.15,0,2.36,1.26,3.13,1.26,1.1,0,1.27-2,1.27-2.86,0-4.45-1.38-6.43-1.38-8.52,0-.77,1.38-.77,1.93-.77h5.72c2.47,0,2.25,24.64,2.25,27.22,0,1.27.22,19.69-1.7,19.69Zm7.15-20.46c0-9.68-1.49-10.34-3.52-10.34-2.37,0-7.75,3.08-7.75,13.09,0,3.8,1.43,9.68,6.1,9.68C979.1,232.9,978.33,224.43,978.33,220.47Z" transform="translate(-79.98 -59.34)"/><path d="M1010.67,240.93c-1.38,0-3,1-3-19.58,0-27.16,2.86-26.18,3.8-26.18h5.94c.71,0,2.09-.16,2.09.88,0,.55-2.92,9.74-2.92,20.35a106,106,0,0,0,2.75,23.92c0,.55-.33.61-.82.61h-7.81Z" transform="translate(-79.98 -59.34)"/><path d="M1042.46,240.93c-1.93,0-1.71-18.42-1.71-19.69,0-2.58-.22-27.22,2.26-27.22h5.88c.72,0,1.32.33,1.32,1.21,0,1.1-2,6.16-2,20.46,0,1.92,0,4.4.71,4.4,1.87,0,6.88-7.26,6.88-13.2,0-1.38.55-1.16,1.7-1.16h3.36c1.1,0,2.36-.33,2.36,1.21,0,7.59-6,12.54-6,13.64s2.25,2,4.51,4.84a22.19,22.19,0,0,1,4.51,14c0,1.65-1,1.49-2.42,1.49h-4.46c-1.48,0-2,0-2-1.71-.06-7.59-3.63-13.69-5.28-13.69a3.55,3.55,0,0,0-3.25,3.47c0,6.7,1.38,10.28,1.38,11.27,0,.6-.55.66-1.38.66Z" transform="translate(-79.98 -59.34)"/><path d="M1086,240.93c-.71,0-1.92.16-1.92-.88a66.79,66.79,0,0,0,2.8-19c0-3.9-.33-8.8-4.07-8.8-2.09,0-6.38,1.38-6.38,12.27,0,6.59,1.6,15.06,1.6,15.72s-.94.72-1.49.72h-4.67c-2,0-2.86.93-2.86-13.58,0-24.92,1.92-23.38,6.16-23.38,1.92,0,3.9-.27,3.9,1,0,.55-.49,1.21-.49,2,0,.55.27,1.05.82,1.05.94,0,3.47-2.26,7-2.26,1.54,0,7.92.22,7.92,14.69,0,21.61-1.71,20.51-3.58,20.51Z" transform="translate(-79.98 -59.34)"/><path d="M1098,223.28c0-8.86,4.24-18.37,13.81-18.37s13.8,9.51,13.8,18.37c0,12.92-7.48,18.47-13.8,18.47S1098,236.2,1098,223.28Zm20.79-1.38c0-4.34-1.54-10.5-7-10.5s-7,6.16-7,10.5,1.43,10.67,7,10.67S1118.74,226.3,1118.74,221.9Z" transform="translate(-79.98 -59.34)"/><path d="M1162.68,205.73c2.2,0,2.59-.11,2.59,5.45,0,20-10.83,30.57-12.15,30.57-1.54,0-4.46-6-5.12-7.37-.16-.33-1.26-3.07-1.92-3.07s-1.21,1.48-1.43,1.92c-.61,1.26-4.46,8.52-6,8.52-1.7,0-10.78-11.87-10.78-30,0-6.66.88-6,3-6h4.34c.66.06,1.27,0,1.27.83a30.14,30.14,0,0,0-.61,6.82c0,9.4,2.59,16.72,3.52,16.72s4.68-3.69,4.51-17.6c0-2-.33-5-.33-5.89,0-.66.22-.88.83-.88h5.44c.5.06,1.21,0,1.21.77,0,.66-.49,4.13-.49,7,0,10.28,2.64,16.61,3.79,16.61,1.32,0,4.07-7.81,4.07-16,0-3.63-.72-6.1-.72-7.53,0-1,1.21-.83,1.93-.83Z" transform="translate(-79.98 -59.34)"/><path d="M1187.93,240.93c-1.87,0-3,1.76-3-14.52,0-23.15-.72-22.44,6.76-22.44,1.16,0,2.37.06,2.37.88,0,.66-.66,1.71-.66,2.48a1,1,0,0,0,1.1.93c.65,0,1.43-.66,2.64-1.26a10.42,10.42,0,0,1,5.16-1.27c2.7,0,4.46,2.53,5.83,2.53a6.16,6.16,0,0,0,3.25-1,10.35,10.35,0,0,1,5.06-1.54c10.12,0,9.9,13.26,9.9,20.3,0,16.77-2.09,14.9-3.69,14.9h-3.74c-.55,0-2.09.11-2.09-.88s2.09-7,2.09-16.22c0-10.51-3.74-11.61-5.83-11.61-1.92,0-3.74-.16-3.74,8.91,0,19.74-.27,19.8-2,19.8h-5c-1,0-1.93.22-1.93-.55s2.09-11.88,2.09-17.1c0-3.3,0-11.06-4.5-11.06-4.13,0-5.67,5.06-5.67,13.26,0,11.05,1.54,13.14,1.54,14.68,0,.93-1,.77-1.59.77Z" transform="translate(-79.98 -59.34)"/><path d="M1230.28,234.82c0-.66.11-2.25,1.6-2.25,6.32,0,8-2,8-2.75,0-2.31-9.57-6.21-9.57-21.5,0-2.48,0-2.59,2.09-2.59h4.51c.72,0,1.93-.16,1.93,1,0,.77-.5,2.48-.5,4.13,0,6.43,5.39,12.48,6.49,12.48,2.2,0,3.68-6.6,3.68-10.83,0-2.75-.6-5.06-.6-5.94s1.37-.83,2-.83h4.89c1,.17.88,1.93.88,4.29.5,16.12-11.93,31.73-24,31.73-1.26,0-1.32-.82-1.32-2.09Z" transform="translate(-79.98 -59.34)"/><path d="M1277.75,240.93c-1.93,0-1.71-18.42-1.71-19.69,0-2.58-.22-27.22,2.25-27.22h5.23c.6,0,2.25-.17,2.25,1a92.85,92.85,0,0,0-2.31,21.95,111.51,111.51,0,0,0,2.09,23.26c0,.93-1.43.66-2,.66Z" transform="translate(-79.98 -59.34)"/><path d="M1288.3,223.28c0-8.86,4.24-18.37,13.81-18.37s13.8,9.51,13.8,18.37c0,12.92-7.48,18.47-13.8,18.47S1288.3,236.2,1288.3,223.28Zm20.79-1.38c0-4.34-1.54-10.5-7-10.5s-7,6.16-7,10.5,1.43,10.67,7,10.67S1309.09,226.3,1309.09,221.9Z" transform="translate(-79.98 -59.34)"/><path d="M1342,205.73c1.93,0,2.31,0,2.31,3.14,0,23.09-11.93,32.88-13.75,32.88-1.26,0-12.32-9.24-12.32-34.31,0-1.6.22-1.71,1.71-1.71h4.23c.77,0,2.37-.27,2.37.88s-.28,2.42-.28,4.84c0,13.53,4,18.86,5.28,18.86,1.93,0,5.5-7.53,5.5-18.25,0-1.93-.33-3.47-.33-5.17,0-1.27.55-1.16,1.65-1.16Z" transform="translate(-79.98 -59.34)"/><path d="M1346.6,224.82c0-13.31,7.37-19.91,14.74-19.91,6.05,0,11.17,3.41,11.17,9.9,0,11.82-17.71,9.35-17.71,15.07,0,2.58,4.18,4.45,6.93,4.45,9,0,9-6.87,9.79-6.87s1,2.85,1,3.29c0,7-5.39,11-12,11C1350.67,241.75,1346.6,233.61,1346.6,224.82Zm7.43-5.45c0,.61.27,1.21,1,1.21s10.67-2.2,10.67-5-2.53-4.18-4.62-4.18C1356.61,211.4,1354,216.18,1354,219.37Z" transform="translate(-79.98 -59.34)"/><path d="M1426.24,205.73c2.2,0,2.58-.11,2.58,5.45,0,20-10.83,30.57-12.15,30.57-1.54,0-4.45-6-5.11-7.37-.17-.33-1.27-3.07-1.93-3.07s-1.21,1.48-1.43,1.92c-.6,1.26-4.45,8.52-6,8.52-1.71,0-10.78-11.87-10.78-30,0-6.66.88-6,3-6h4.35c.66.06,1.26,0,1.26.83a30.62,30.62,0,0,0-.6,6.82c0,9.4,2.58,16.72,3.52,16.72s4.67-3.69,4.51-17.6c0-2-.33-5-.33-5.89,0-.66.22-.88.82-.88h5.45c.49.06,1.2,0,1.2.77,0,.66-.49,4.13-.49,7,0,10.28,2.64,16.61,3.79,16.61,1.32,0,4.07-7.81,4.07-16,0-3.63-.71-6.1-.71-7.53,0-1,1.21-.83,1.92-.83Z" transform="translate(-79.98 -59.34)"/><path d="M1435.43,240.93c-2.7,0-2.92,1.15-2.92-18.2,0-18.81.88-17,2.7-17h3c2.31,0,2.37.17,2.37.83,0,2-.66,4.07-.66,10.06a115.16,115.16,0,0,0,2.14,22.88c0,1.76-1.65,1.43-2.91,1.43Zm-2.31-43.12c0-2.36,2-3.79,4.23-3.79s4.24,1.43,4.24,3.79-2,3.63-4.24,3.63S1433.12,200.18,1433.12,197.81Z" transform="translate(-79.98 -59.34)"/><path d="M1449.34,240.93c-1.92,0-1.7-18.42-1.7-19.69,0-2.58-.22-27.22,2.25-27.22h5.23c.6,0,2.25-.17,2.25,1a92.85,92.85,0,0,0-2.31,21.95,111.51,111.51,0,0,0,2.09,23.26c0,.93-1.43.66-2,.66Z" transform="translate(-79.98 -59.34)"/><path d="M1463.48,240.93c-1.93,0-1.71-18.42-1.71-19.69,0-2.58-.22-27.22,2.26-27.22h5.22c.6,0,2.25-.17,2.25,1a92.85,92.85,0,0,0-2.31,21.95,111.51,111.51,0,0,0,2.09,23.26c0,.93-1.43.66-2,.66Z" transform="translate(-79.98 -59.34)"/><path d="M1501.53,240.93c-6.16,0-11.54-5.45-11.54-16.55,0-12.6,8.35-19.47,13.19-19.47,1.16,0,2.37,1.26,3.14,1.26,1.1,0,1.26-2,1.26-2.86,0-4.45-1.37-6.43-1.37-8.52,0-.77,1.37-.77,1.92-.77h5.72c2.48,0,2.26,24.64,2.26,27.22,0,1.27.22,19.69-1.71,19.69Zm7.15-20.46c0-9.68-1.48-10.34-3.52-10.34-2.36,0-7.75,3.08-7.75,13.09,0,3.8,1.43,9.68,6.1,9.68C1509.45,232.9,1508.68,224.43,1508.68,220.47Z" transform="translate(-79.98 -59.34)"/><path d="M1519.79,223.28c0-8.86,4.24-18.37,13.81-18.37s13.8,9.51,13.8,18.37c0,12.92-7.48,18.47-13.8,18.47S1519.79,236.2,1519.79,223.28Zm20.79-1.38c0-4.34-1.54-10.5-7-10.5s-7,6.16-7,10.5,1.43,10.67,7,10.67S1540.58,226.3,1540.58,221.9Z" transform="translate(-79.98 -59.34)"/><path d="M83.66,106.27c-1.37,0-3,1-3-19.58,0-27.17,2.86-26.18,3.79-26.18h5.94c.72,0,2.09-.16,2.09.88,0,.55-2.91,9.74-2.91,20.35a106,106,0,0,0,2.75,23.92c0,.55-.33.61-.83.61H83.66Z" transform="translate(-79.98 -59.34)"/><path d="M102.09,106.27c-.83,0-1.82,1.65-1.82-16.45,0-2.75.17-5.5.17-8.25,0-1.65.49-4.78-2-4.78-1,0-1.54.66-2.15.66s-.66-.72-.66-1.71c0-4.17,1.21-4.67,3.3-4.67,2.48,0,2.48-3.68,3.25-6.16a8.06,8.06,0,0,1,7.31-5.55c2.15,0,4.95-.28,4.95,1.32,0,.82-.66,6.21-1.59,6.21-.77,0-1-.49-1.6-.49-1.54,0-2.58,2.25-2.58,3.52a1.37,1.37,0,0,0,1.37,1.43c.72,0,1.38-.28,2.09-.28,2.09,0,2.15,1.49,2.15,3.35,0,.77,0,2.86-1.16,2.86a20.67,20.67,0,0,0-2.53-.49c-3,0-2.91,3.74-2.91,5.88,0,7.26,2,21.89,2,22.61,0,1.21-.77,1-1.76,1Z" transform="translate(-79.98 -59.34)"/><path d="M137.29,106.27c-1.38,0-3,1-3-19.58,0-27.17,2.86-26.18,3.8-26.18H144c.71,0,2.08-.16,2.08.88,0,.55-2.91,9.74-2.91,20.35a106,106,0,0,0,2.75,23.92c0,.55-.33.61-.82.61h-7.81Z" transform="translate(-79.98 -59.34)"/><path d="M165.94,90.43c0-9.46,4.79-20.18,15.62-20.18,4.78,0,8.25,2.58,8.25,5.71,0,1.65-1.21,4.84-3.25,4.84-1.26,0-1-4.07-5.5-4.07-5.66,0-7.69,7.48-7.69,12.1,0,5.34,2.53,9.79,7.75,9.79,5.94,0,7.31-5.44,7.81-5.44.27,0,.82,1,.82,3.24,0,6.6-4.34,10.67-10.83,10.67C169.79,107.09,165.94,98.46,165.94,90.43Z" transform="translate(-79.98 -59.34)"/><path d="M192.78,88.61c0-8.85,4.24-18.36,13.8-18.36s13.81,9.51,13.81,18.36c0,12.93-7.48,18.48-13.81,18.48S192.78,101.54,192.78,88.61Zm20.79-1.37c0-4.35-1.54-10.51-7-10.51s-7,6.16-7,10.51,1.43,10.67,7,10.67S213.57,91.64,213.57,87.24Z" transform="translate(-79.98 -59.34)"/><path d="M247.23,71.07c2.31,0,2.36,11.55,2.36,16.77,0,20.19-1.43,19.25-5.39,19.25-5.77,0-1.37-3.08-4.51-3.08-.49,0-1.76,1.16-2.75,1.82a7.46,7.46,0,0,1-4.07,1.26c-4.56,0-8.79-2.86-8.79-18.59,0-.93.38-17.43,2.69-17.43h5.06c.71,0,2.2-.27,2.2.83,0,.82-2.53,6.32-2.53,16.71,0,3.08-.06,11.44,4.67,11.44,1.82,0,6-.55,6-12.37,0-6.6-1.93-15.07-1.93-16,0-.71,1.27-.66,1.87-.66Z" transform="translate(-79.98 -59.34)"/><path d="M256.85,106.27c-1.92,0-1.7-18.43-1.7-19.69,0-2.59-.22-27.22,2.25-27.22h5.23c.6,0,2.25-.17,2.25,1a92.71,92.71,0,0,0-2.31,21.94,111.56,111.56,0,0,0,2.09,23.27c0,.93-1.43.66-2,.66Z" transform="translate(-79.98 -59.34)"/><path d="M279,106.27c-6.16,0-11.55-5.45-11.55-16.56,0-12.59,8.36-19.46,13.2-19.46,1.16,0,2.37,1.26,3.14,1.26,1.1,0,1.26-2,1.26-2.86,0-4.45-1.37-6.43-1.37-8.52,0-.77,1.37-.77,1.92-.77h5.72c2.48,0,2.26,24.63,2.26,27.22,0,1.26.22,19.69-1.71,19.69Zm7.15-20.46c0-9.68-1.48-10.34-3.52-10.34-2.36,0-7.75,3.08-7.75,13.09,0,3.79,1.43,9.68,6.1,9.68C286.88,98.24,286.11,89.77,286.11,85.81Z" transform="translate(-79.98 -59.34)"/><path d="M322.14,59.36c.66,0,2,0,2,1.21,0,.44-1.65,5.94-1.65,9.18,0,.88.16,1.76,1.21,1.76a7.28,7.28,0,0,0,2.25-.6,11.21,11.21,0,0,1,3.19-.66c4.68,0,11.22,4.17,11.22,15.78,0,6.32-1.59,11.38-5.61,16a11.48,11.48,0,0,1-8.69,4.29h-9.73c-1.93,0-1.71-18.43-1.71-19.69,0-2.59-.22-27.22,2.26-27.22Zm10.78,27.33c0-9-3.91-11.22-6.22-11.22-3.9,0-4.67,1.92-4.67,10,0,11.88,2.8,11.66,4.23,11.66C331.65,97.08,332.92,90.76,332.92,86.69Z" transform="translate(-79.98 -59.34)"/><path d="M342.65,90.15c0-13.31,7.37-19.9,14.74-19.9,6.05,0,11.17,3.4,11.17,9.89,0,11.83-17.71,9.35-17.71,15.07,0,2.59,4.18,4.46,6.93,4.46,9,0,9-6.88,9.79-6.88s1,2.86,1,3.3c0,7-5.39,11-12,11C346.72,107.09,342.65,99,342.65,90.15Zm7.43-5.44c0,.6.27,1.21,1,1.21s10.67-2.2,10.67-5-2.53-4.18-4.62-4.18C352.66,76.73,350.08,81.52,350.08,84.71Z" transform="translate(-79.98 -59.34)"/><path d="M401.12,83.39c1.59-.28,2.86-.55,2.86-2.37,0-2.8-2.92-4.29-5.34-4.29-5.61,0-4.78,4.73-6,4.73-1.76,0-3.69-2.14-3.69-4.51,0-4.06,4.57-6.7,9.63-6.7,1.76,0,9.29-.06,12.1,7.64,1.15,3.19,1.26,19.47,1.26,21.39,0,2.42.44,3.85.44,5.72,0,1.16-5.17,1.27-10.06,1.27-13.26,0-14.19-6.82-14.19-10.12C388.14,89.22,395,84.43,401.12,83.39ZM404.53,93c0-1.92.33-4.23-2.31-4.23-3.25,0-6.66,2.75-6.66,6.1,0,3.08,2.7,4.9,5.61,4.9,3.25,0,3.36-1.65,3.36-4.35Z" transform="translate(-79.98 -59.34)"/><path d="M442.75,59.36c.5,0,.88.6.88,1.15,0,.77-2.09,6.16-2.09,10.56,0,.66,0,1.7.94,1.7a7.86,7.86,0,0,0,2.53-1.2,9.87,9.87,0,0,1,4.61-1.32c5,0,8.69,3.57,8.69,16.82,0,5.28-.77,19.2-2.47,19.2h-5.72c-.5,0-2,.16-2-.72,0-.38,2.75-11.27,2.75-18.59,0-8.52-1.43-10.23-4.12-10.23-5.61,0-5.72,8.58-5.72,12.49,0,11,1.21,14.57,1.21,16.17,0,.88-1.05.88-1.6.88h-5.44c-1.6,0-1.6,1.87-1.6-22.55,0-4.4.11-24.36,3.14-24.36Z" transform="translate(-79.98 -59.34)"/><path d="M486.47,71.07c2.31,0,2.37,11.55,2.37,16.77,0,20.19-1.43,19.25-5.39,19.25-5.78,0-1.38-3.08-4.51-3.08-.5,0-1.76,1.16-2.75,1.82a7.49,7.49,0,0,1-4.07,1.26c-4.56,0-8.8-2.86-8.8-18.59,0-.93.39-17.43,2.7-17.43h5.06c.71,0,2.19-.27,2.19.83,0,.82-2.52,6.32-2.52,16.71,0,3.08-.06,11.44,4.67,11.44,1.81,0,6-.55,6-12.37,0-6.6-1.92-15.07-1.92-16,0-.71,1.26-.66,1.87-.66Z" transform="translate(-79.98 -59.34)"/><path d="M496.93,106.27c-1.87,0-3,1.76-3-14.52,0-23.15-.71-22.44,6.77-22.44,1.15,0,2.36.06,2.36.88,0,.66-.66,1.71-.66,2.48a1,1,0,0,0,1.1.93c.66,0,1.43-.66,2.64-1.27a10.58,10.58,0,0,1,5.17-1.26c2.69,0,4.45,2.53,5.83,2.53a6.11,6.11,0,0,0,3.24-1,10.38,10.38,0,0,1,5.06-1.54c10.12,0,9.9,13.25,9.9,20.29,0,16.78-2.09,14.91-3.68,14.91h-3.74c-.55,0-2.09.11-2.09-.88s2.09-7,2.09-16.23c0-10.5-3.74-11.6-5.83-11.6-1.93,0-3.74-.17-3.74,8.91,0,19.74-.28,19.8-2,19.8h-4.95c-1,0-1.92.22-1.92-.55s2.09-11.88,2.09-17.11c0-3.3,0-11-4.51-11-4.12,0-5.66,5.06-5.66,13.25,0,11.06,1.54,13.15,1.54,14.69,0,.93-1,.77-1.6.77Z" transform="translate(-79.98 -59.34)"/><path d="M542.85,106.27c-1.7,0-2.47.49-2.47-9V81.13c0-11.71.88-10.88,10.22-10.88,12.32,0,15.4,5.77,15.4,11.6,0,8.58-8.41,17.21-12.65,17.21-1,0-2-1.32-2.91-2.36s-1.6-2-2-2c-.55,0-.39,1-.39,2a64.58,64.58,0,0,0,1,8.86c0,.88-1.16.77-1.76.77Zm16.33-23.49a6.11,6.11,0,0,0-6.38-6c-2.91,0-5,.22-5,11.17,0,1.92.05,4.12,2.53,4.12C555.22,92,559.18,87.35,559.18,82.78Z" transform="translate(-79.98 -59.34)"/><path d="M581.51,83.39c1.6-.28,2.86-.55,2.86-2.37,0-2.8-2.91-4.29-5.33-4.29-5.61,0-4.79,4.73-6,4.73-1.75,0-3.68-2.14-3.68-4.51,0-4.06,4.56-6.7,9.62-6.7,1.76,0,9.3-.06,12.1,7.64,1.16,3.19,1.27,19.47,1.27,21.39,0,2.42.44,3.85.44,5.72,0,1.16-5.17,1.27-10.07,1.27-13.25,0-14.18-6.82-14.18-10.12C568.54,89.22,575.35,84.43,581.51,83.39ZM584.92,93c0-1.92.33-4.23-2.31-4.23-3.24,0-6.65,2.75-6.65,6.1,0,3.08,2.69,4.9,5.61,4.9,3.24,0,3.35-1.65,3.35-4.35Z" transform="translate(-79.98 -59.34)"/><path d="M596.47,90.43c0-9.46,4.79-20.18,15.62-20.18,4.79,0,8.25,2.58,8.25,5.71,0,1.65-1.21,4.84-3.24,4.84-1.27,0-1.05-4.07-5.5-4.07-5.67,0-7.7,7.48-7.7,12.1,0,5.34,2.53,9.79,7.75,9.79,5.94,0,7.32-5.44,7.81-5.44.28,0,.83,1,.83,3.24,0,6.6-4.35,10.67-10.84,10.67C600.32,107.09,596.47,98.46,596.47,90.43Z" transform="translate(-79.98 -59.34)"/><path d="M626.45,106.27c-1.93,0-1.71-18.43-1.71-19.69,0-2.59-.22-27.22,2.26-27.22h5.88c.72,0,1.32.33,1.32,1.21,0,1.1-2,6.16-2,20.45,0,1.93,0,4.4.71,4.4,1.87,0,6.88-7.26,6.88-13.19,0-1.38.55-1.16,1.7-1.16h3.36c1.1,0,2.36-.33,2.36,1.21,0,7.59-6,12.54-6,13.64s2.25,2,4.51,4.84a22.17,22.17,0,0,1,4.51,14c0,1.65-1.05,1.49-2.42,1.49h-4.46c-1.48,0-2,0-2-1.71-.06-7.59-3.63-13.69-5.28-13.69a3.53,3.53,0,0,0-3.25,3.46c0,6.71,1.38,10.29,1.38,11.28,0,.6-.55.66-1.38.66Z" transform="translate(-79.98 -59.34)"/><path d="M702.34,71.07c2.2,0,2.59-.11,2.59,5.44,0,20-10.83,30.58-12.15,30.58-1.54,0-4.46-6-5.12-7.37-.16-.33-1.26-3.08-1.92-3.08s-1.21,1.49-1.43,1.93c-.61,1.26-4.46,8.52-6,8.52-1.7,0-10.78-11.88-10.78-30,0-6.65.88-6,3-6h4.34c.66.06,1.27,0,1.27.83a30.09,30.09,0,0,0-.61,6.81c0,9.41,2.59,16.72,3.52,16.72s4.68-3.68,4.51-17.6c0-2-.33-5-.33-5.88,0-.66.22-.88.83-.88h5.44c.5.06,1.21,0,1.21.77,0,.66-.49,4.12-.49,7,0,10.29,2.64,16.61,3.79,16.61,1.32,0,4.07-7.81,4.07-16,0-3.63-.71-6.1-.71-7.53,0-1,1.2-.83,1.92-.83Z" transform="translate(-79.98 -59.34)"/><path d="M718,59.36c.49,0,.88.6.88,1.15,0,.77-2.09,6.16-2.09,10.56,0,.66,0,1.7.93,1.7a7.86,7.86,0,0,0,2.53-1.2,10,10,0,0,1,4.62-1.32c5,0,8.69,3.57,8.69,16.82,0,5.28-.77,19.2-2.48,19.2h-5.71c-.5,0-2,.16-2-.72,0-.38,2.74-11.27,2.74-18.59,0-8.52-1.42-10.23-4.12-10.23-5.61,0-5.72,8.58-5.72,12.49,0,11,1.21,14.57,1.21,16.17,0,.88-1,.88-1.59.88h-5.45c-1.59,0-1.59,1.87-1.59-22.55,0-4.4.11-24.36,3.13-24.36Z" transform="translate(-79.98 -59.34)"/><path d="M750.8,83.39c1.6-.28,2.86-.55,2.86-2.37,0-2.8-2.91-4.29-5.33-4.29-5.61,0-4.79,4.73-6,4.73-1.76,0-3.68-2.14-3.68-4.51,0-4.06,4.56-6.7,9.62-6.7,1.76,0,9.29-.06,12.1,7.64,1.15,3.19,1.26,19.47,1.26,21.39,0,2.42.44,3.85.44,5.72,0,1.16-5.17,1.27-10.06,1.27-13.25,0-14.19-6.82-14.19-10.12C737.82,89.22,744.64,84.43,750.8,83.39ZM754.21,93c0-1.92.33-4.23-2.31-4.23-3.24,0-6.65,2.75-6.65,6.1,0,3.08,2.69,4.9,5.61,4.9,3.24,0,3.35-1.65,3.35-4.35Z" transform="translate(-79.98 -59.34)"/><path d="M769.34,106.27c-1.93,0-1.71-18.43-1.71-19.69,0-2.59-.22-27.22,2.26-27.22h5.22c.61,0,2.25-.17,2.25,1a93.09,93.09,0,0,0-2.3,21.94,111.56,111.56,0,0,0,2.09,23.27c0,.93-1.43.66-2,.66Z" transform="translate(-79.98 -59.34)"/><path d="M779.9,90.15c0-13.31,7.37-19.9,14.73-19.9,6,0,11.17,3.4,11.17,9.89,0,11.83-17.71,9.35-17.71,15.07,0,2.59,4.18,4.46,6.93,4.46,9,0,9-6.88,9.79-6.88s1,2.86,1,3.3c0,7-5.39,11-12,11C784,107.09,779.9,99,779.9,90.15Zm7.42-5.44c0,.6.28,1.21,1,1.21s10.67-2.2,10.67-5-2.53-4.18-4.62-4.18C789.9,76.73,787.32,81.52,787.32,84.71Z" transform="translate(-79.98 -59.34)"/><path d="M814.65,95.65a3.82,3.82,0,0,1,2.09-1c3.08,0,5.45,3.35,5.45,6.21,0,6.33-6.71,9-9.9,9-.16,0-.44-.11-.44-.28a9,9,0,0,0,1.43-4.18c0-4.62-4.29-4.4-4.29-5,0-.27.94-.93,1.1-1Z" transform="translate(-79.98 -59.34)"/><path d="M875.48,71.07c2.2,0,2.58-.11,2.58,5.44,0,20-10.83,30.58-12.15,30.58-1.54,0-4.45-6-5.11-7.37-.17-.33-1.27-3.08-1.93-3.08s-1.21,1.49-1.43,1.93c-.6,1.26-4.45,8.52-6,8.52-1.71,0-10.78-11.88-10.78-30,0-6.65.88-6,3-6H848c.66.06,1.26,0,1.26.83a30.57,30.57,0,0,0-.6,6.81c0,9.41,2.58,16.72,3.52,16.72s4.67-3.68,4.51-17.6c0-2-.33-5-.33-5.88,0-.66.22-.88.82-.88h5.45c.49.06,1.21,0,1.21.77,0,.66-.5,4.12-.5,7,0,10.29,2.64,16.61,3.8,16.61,1.32,0,4.07-7.81,4.07-16,0-3.63-.72-6.1-.72-7.53,0-1,1.21-.83,1.93-.83Z" transform="translate(-79.98 -59.34)"/><path d="M880.38,90.15c0-13.31,7.37-19.9,14.74-19.9,6,0,11.16,3.4,11.16,9.89,0,11.83-17.71,9.35-17.71,15.07,0,2.59,4.18,4.46,6.93,4.46,9,0,9-6.88,9.79-6.88s1,2.86,1,3.3c0,7-5.39,11-12,11C884.45,107.09,880.38,99,880.38,90.15Zm7.42-5.44c0,.6.28,1.21,1,1.21s10.67-2.2,10.67-5-2.53-4.18-4.62-4.18C890.39,76.73,887.8,81.52,887.8,84.71Z" transform="translate(-79.98 -59.34)"/><path d="M916.51,60.73a3.82,3.82,0,0,1,2.09-1c3.08,0,5.45,3.35,5.45,6.21,0,6.33-6.71,9-9.9,9-.17,0-.44-.11-.44-.27a9,9,0,0,0,1.43-4.18c0-4.62-4.29-4.4-4.29-5,0-.27.93-.93,1.1-1Z" transform="translate(-79.98 -59.34)"/><path d="M939.5,106.27c-6.16,0-11.55-5.45-11.55-16.56,0-12.59,8.36-19.46,13.2-19.46,1.16,0,2.37,1.26,3.14,1.26,1.1,0,1.26-2,1.26-2.86,0-4.45-1.37-6.43-1.37-8.52,0-.77,1.37-.77,1.92-.77h5.72c2.47,0,2.25,24.63,2.25,27.22,0,1.26.22,19.69-1.7,19.69Zm7.15-20.46c0-9.68-1.48-10.34-3.52-10.34-2.36,0-7.75,3.08-7.75,13.09,0,3.79,1.43,9.68,6.1,9.68C947.42,98.24,946.65,89.77,946.65,85.81Z" transform="translate(-79.98 -59.34)"/><path d="M985.26,106.27c-6.16,0-11.55-5.45-11.55-16.56,0-12.59,8.36-19.46,13.2-19.46,1.16,0,2.37,1.26,3.14,1.26,1.1,0,1.26-2,1.26-2.86,0-4.45-1.37-6.43-1.37-8.52,0-.77,1.37-.77,1.92-.77h5.72c2.47,0,2.25,24.63,2.25,27.22,0,1.26.22,19.69-1.7,19.69Zm7.15-20.46c0-9.68-1.48-10.34-3.52-10.34-2.36,0-7.75,3.08-7.75,13.09,0,3.79,1.43,9.68,6.1,9.68C993.18,98.24,992.41,89.77,992.41,85.81Z" transform="translate(-79.98 -59.34)"/><path d="M1007.81,106.27c-2.69,0-2.91,1.15-2.91-18.21,0-18.8.88-17,2.69-17h3c2.31,0,2.36.17,2.36.83,0,2-.66,4.06-.66,10.06a114.64,114.64,0,0,0,2.15,22.88c0,1.76-1.65,1.43-2.92,1.43Zm-2.31-43.12c0-2.36,2-3.79,4.24-3.79s4.23,1.43,4.23,3.79-2,3.63-4.23,3.63S1005.5,65.52,1005.5,63.15Z" transform="translate(-79.98 -59.34)"/><path d="M1041.91,71.07c1.92,0,2.31,0,2.31,3.14,0,23.09-11.93,32.88-13.75,32.88-1.26,0-12.32-9.24-12.32-34.32,0-1.59.22-1.7,1.71-1.7h4.23c.77,0,2.37-.27,2.37.88s-.28,2.42-.28,4.84c0,13.53,4,18.86,5.28,18.86,1.93,0,5.5-7.53,5.5-18.26,0-1.92-.33-3.46-.33-5.16,0-1.27.55-1.16,1.65-1.16Z" transform="translate(-79.98 -59.34)"/><path d="M1046.53,90.15c0-13.31,7.37-19.9,14.74-19.9,6,0,11.16,3.4,11.16,9.89,0,11.83-17.7,9.35-17.7,15.07,0,2.59,4.18,4.46,6.92,4.46,9,0,9-6.88,9.79-6.88s1,2.86,1,3.3c0,7-5.39,11-12,11C1050.6,107.09,1046.53,99,1046.53,90.15Zm7.43-5.44c0,.6.27,1.21,1,1.21s10.66-2.2,10.66-5-2.53-4.18-4.61-4.18C1056.54,76.73,1054,81.52,1054,84.71Z" transform="translate(-79.98 -59.34)"/><path d="M1102.9,106.27c-6.15,0-11.54-5.45-11.54-16.56,0-12.59,8.35-19.46,13.19-19.46,1.16,0,2.37,1.26,3.14,1.26,1.1,0,1.26-2,1.26-2.86,0-4.45-1.37-6.43-1.37-8.52,0-.77,1.37-.77,1.92-.77h5.72c2.48,0,2.26,24.63,2.26,27.22,0,1.26.22,19.69-1.71,19.69Zm7.15-20.46c0-9.68-1.48-10.34-3.52-10.34-2.36,0-7.75,3.08-7.75,13.09,0,3.79,1.43,9.68,6.1,9.68C1110.82,98.24,1110.05,89.77,1110.05,85.81Z" transform="translate(-79.98 -59.34)"/><path d="M1121.17,90.15c0-13.31,7.36-19.9,14.73-19.9,6,0,11.17,3.4,11.17,9.89,0,11.83-17.71,9.35-17.71,15.07,0,2.59,4.18,4.46,6.93,4.46,9,0,9-6.88,9.79-6.88s1,2.86,1,3.3c0,7-5.39,11-12,11C1125.24,107.09,1121.17,99,1121.17,90.15Zm7.42-5.44c0,.6.27,1.21,1,1.21s10.67-2.2,10.67-5-2.53-4.18-4.62-4.18C1131.17,76.73,1128.59,81.52,1128.59,84.71Z" transform="translate(-79.98 -59.34)"/><path d="M1150,90.15c0-13.31,7.37-19.9,14.74-19.9,6,0,11.16,3.4,11.16,9.89,0,11.83-17.71,9.35-17.71,15.07,0,2.59,4.18,4.46,6.93,4.46,9,0,9-6.88,9.79-6.88s1,2.86,1,3.3c0,7-5.39,11-12,11C1154.11,107.09,1150,99,1150,90.15Zm7.42-5.44c0,.6.28,1.21,1,1.21s10.67-2.2,10.67-5-2.53-4.18-4.62-4.18C1160.05,76.73,1157.46,81.52,1157.46,84.71Z" transform="translate(-79.98 -59.34)"/><path d="M1182.76,106.27c-1.7,0-2.47.49-2.47-9V81.13c0-11.71.88-10.88,10.23-10.88,12.32,0,15.4,5.77,15.4,11.6,0,8.58-8.42,17.21-12.65,17.21-1,0-2-1.32-2.92-2.36s-1.59-2-2-2c-.55,0-.38,1-.38,2a65.17,65.17,0,0,0,1,8.86c0,.88-1.15.77-1.76.77Zm16.34-23.49a6.12,6.12,0,0,0-6.38-6c-2.92,0-5,.22-5,11.17,0,1.92.06,4.12,2.53,4.12C1195.14,92,1199.1,87.35,1199.1,82.78Z" transform="translate(-79.98 -59.34)"/><path d="M1224.73,97.25c0-2.59,1.32-5.89,1.76-5.89.27,0,1.65,8.31,9.46,8.31,2.25,0,4.89-1.16,4.89-4,0-5.67-14.85-4.18-14.85-15.13,0-6.7,5.39-10.33,11.33-10.33,6.88,0,10.67,4.12,10.67,5.22s-3.08,5.5-4.34,5.5c-1.43,0-1.76-4.24-6.82-4.24-1.71,0-4,.77-4,2.42,0,5.67,16.06,5.56,16.06,16.72,0,7.15-5.94,11.22-12.54,11.22C1230.5,107.09,1224.73,103.68,1224.73,97.25Z" transform="translate(-79.98 -59.34)"/><path d="M1252.17,90.15c0-13.31,7.37-19.9,14.74-19.9,6,0,11.17,3.4,11.17,9.89,0,11.83-17.71,9.35-17.71,15.07,0,2.59,4.18,4.46,6.93,4.46,9,0,9-6.88,9.79-6.88s1,2.86,1,3.3c0,7-5.39,11-12,11C1256.24,107.09,1252.17,99,1252.17,90.15Zm7.43-5.44c0,.6.27,1.21,1,1.21s10.67-2.2,10.67-5-2.53-4.18-4.62-4.18C1262.18,76.73,1259.6,81.52,1259.6,84.71Z" transform="translate(-79.98 -59.34)"/><path d="M1294.69,83.39c1.59-.28,2.86-.55,2.86-2.37,0-2.8-2.92-4.29-5.34-4.29-5.61,0-4.78,4.73-6,4.73-1.76,0-3.69-2.14-3.69-4.51,0-4.06,4.57-6.7,9.63-6.7,1.76,0,9.29-.06,12.1,7.64,1.15,3.19,1.26,19.47,1.26,21.39,0,2.42.44,3.85.44,5.72,0,1.16-5.17,1.27-10.06,1.27-13.26,0-14.19-6.82-14.19-10.12C1281.71,89.22,1288.53,84.43,1294.69,83.39ZM1298.1,93c0-1.92.33-4.23-2.31-4.23-3.25,0-6.66,2.75-6.66,6.1,0,3.08,2.7,4.9,5.61,4.9,3.25,0,3.36-1.65,3.36-4.35Z" transform="translate(-79.98 -59.34)"/><path d="M1310.64,97.25c0-2.59,1.32-5.89,1.76-5.89.27,0,1.65,8.31,9.46,8.31,2.25,0,4.89-1.16,4.89-4,0-5.67-14.85-4.18-14.85-15.13,0-6.7,5.39-10.33,11.33-10.33,6.88,0,10.67,4.12,10.67,5.22s-3.08,5.5-4.34,5.5c-1.43,0-1.76-4.24-6.82-4.24-1.71,0-4,.77-4,2.42,0,5.67,16.06,5.56,16.06,16.72,0,7.15-5.94,11.22-12.54,11.22C1316.41,107.09,1310.64,103.68,1310.64,97.25Z" transform="translate(-79.98 -59.34)"/><path d="M1354,88.61c0-8.85,4.24-18.36,13.81-18.36s13.8,9.51,13.8,18.36c0,12.93-7.48,18.48-13.8,18.48S1354,101.54,1354,88.61Zm20.79-1.37c0-4.35-1.54-10.51-7-10.51s-7,6.16-7,10.51,1.43,10.67,7,10.67S1374.82,91.64,1374.82,87.24Z" transform="translate(-79.98 -59.34)"/><path d="M1389.67,106.27c-.82,0-1.81,1.65-1.81-16.45,0-2.75.16-5.5.16-8.25,0-1.65.5-4.78-2-4.78-1,0-1.54.66-2.14.66s-.66-.72-.66-1.71c0-4.17,1.21-4.67,3.3-4.67,2.47,0,2.47-3.68,3.24-6.16a8.08,8.08,0,0,1,7.32-5.55c2.14,0,4.94-.28,4.94,1.32,0,.82-.65,6.21-1.59,6.21-.77,0-1-.49-1.59-.49-1.54,0-2.59,2.25-2.59,3.52a1.38,1.38,0,0,0,1.38,1.43c.71,0,1.37-.28,2.09-.28,2.09,0,2.14,1.49,2.14,3.35,0,.77,0,2.86-1.15,2.86a20.67,20.67,0,0,0-2.53-.49c-3,0-2.92,3.74-2.92,5.88,0,7.26,2,21.89,2,22.61,0,1.21-.77,1-1.76,1Z" transform="translate(-79.98 -59.34)"/><path d="M1428.55,59.36c.66,0,2,0,2,1.21,0,.44-1.66,5.94-1.66,9.18,0,.88.17,1.76,1.21,1.76a7.26,7.26,0,0,0,2.26-.6,11.07,11.07,0,0,1,3.19-.66c4.67,0,11.22,4.17,11.22,15.78,0,6.32-1.6,11.38-5.61,16a11.5,11.5,0,0,1-8.69,4.29h-9.73c-1.93,0-1.71-18.43-1.71-19.69,0-2.59-.22-27.22,2.26-27.22Zm10.78,27.33c0-9-3.9-11.22-6.21-11.22-3.91,0-4.67,1.92-4.67,10,0,11.88,2.8,11.66,4.23,11.66C1438.07,97.08,1439.33,90.76,1439.33,86.69Z" transform="translate(-79.98 -59.34)"/><path d="M1452.65,106.27c-1.93,0-1.71-18.43-1.71-19.69,0-2.59-.22-27.22,2.26-27.22h5.22c.6,0,2.25-.17,2.25,1a92.71,92.71,0,0,0-2.31,21.94,111.56,111.56,0,0,0,2.09,23.27c0,.93-1.43.66-2,.66Z" transform="translate(-79.98 -59.34)"/><path d="M1487.73,71.07c2.31,0,2.37,11.55,2.37,16.77,0,20.19-1.43,19.25-5.39,19.25-5.78,0-1.38-3.08-4.51-3.08-.5,0-1.76,1.16-2.75,1.82a7.49,7.49,0,0,1-4.07,1.26c-4.57,0-8.8-2.86-8.8-18.59,0-.93.39-17.43,2.7-17.43h5c.72,0,2.2-.27,2.2.83,0,.82-2.53,6.32-2.53,16.71,0,3.08,0,11.44,4.68,11.44,1.81,0,6-.55,6-12.37,0-6.6-1.92-15.07-1.92-16,0-.71,1.26-.66,1.87-.66Z" transform="translate(-79.98 -59.34)"/><path d="M1493.79,90.15c0-13.31,7.36-19.9,14.73-19.9,6,0,11.17,3.4,11.17,9.89,0,11.83-17.71,9.35-17.71,15.07,0,2.59,4.18,4.46,6.93,4.46,9,0,9-6.88,9.79-6.88s1,2.86,1,3.3c0,7-5.39,11-12,11C1497.86,107.09,1493.79,99,1493.79,90.15Zm7.42-5.44c0,.6.27,1.21,1,1.21s10.67-2.2,10.67-5-2.53-4.18-4.62-4.18C1503.79,76.73,1501.21,81.52,1501.21,84.71Z" transform="translate(-79.98 -59.34)"/><path d="M1523.32,101a6.16,6.16,0,1,1,6.1,6.1A6.06,6.06,0,0,1,1523.32,101Z" transform="translate(-79.98 -59.34)"/><path d="M1539.27,101a6.16,6.16,0,1,1,6.1,6.1A6.06,6.06,0,0,1,1539.27,101Z" transform="translate(-79.98 -59.34)"/><path d="M1555.22,101a6.16,6.16,0,1,1,6.1,6.1A6.06,6.06,0,0,1,1555.22,101Z" transform="translate(-79.98 -59.34)"/><path d="M1571.17,101a6.16,6.16,0,1,1,6.1,6.1A6.06,6.06,0,0,1,1571.17,101Z" transform="translate(-79.98 -59.34)"/></svg>