<svg id="Layer_1" data-name="Layer 1" xmlns="http://www.w3.org/2000/svg" viewBox="0 0 44.67 16.94"><defs><style>.cls-1{fill:none;}</style></defs><title>motel4-01</title><path class="cls-1" d="M21.16,22.71a.31.31,0,0,1,0,.07c-.66,1.68-1.32,3.35-2,5-.2.51-.44,1-.67,1.53,0,.08-.08.17,0,.25s.15.07.24.06a1.68,1.68,0,0,0,.77-.31.38.38,0,0,0,.11-.14c.14-.34.27-.68.4-1a1.45,1.45,0,0,0,.1-.55,1.37,1.37,0,0,1,.08-.53c.11-.32.21-.64.32-.95l.57-1.56s0-.07.09,0a2,2,0,0,0,.8,0,5.3,5.3,0,0,0,1.41-.46,5.44,5.44,0,0,0,2.13-1.7,2.37,2.37,0,0,0,.5-1.24.84.84,0,0,0-.53-.93,1.57,1.57,0,0,0-1.22-.08,3,3,0,0,0-1.13.73,6.7,6.7,0,0,0-.85,1.06l-.29.4a.07.07,0,0,1,0,0c.1-.25.2-.5.31-.75a9,9,0,0,1,.54-1,1.55,1.55,0,0,0,.26-.57c0-.19,0-.34-.17-.39a.94.94,0,0,0-.7,0,.15.15,0,0,0-.11.15,2.23,2.23,0,0,1-.05.36,9.82,9.82,0,0,1-.45,1.49,1.52,1.52,0,0,1-.23.5,8.47,8.47,0,0,1-1,1.13,1.41,1.41,0,0,1-.66.35.37.37,0,0,1-.48-.33.19.19,0,0,1,0-.12,4.19,4.19,0,0,0,.6-1.24,1.26,1.26,0,0,0,0-.77.34.34,0,0,0-.46-.21c-.18.07-.23.22-.15.42a1,1,0,0,1,.06.45,2.35,2.35,0,0,1-.27.81l-.06,0a.29.29,0,0,0-.32.18.46.46,0,0,0,0,.38.09.09,0,0,1,0,.07,3.14,3.14,0,0,1-1.07,1,1.51,1.51,0,0,1-.41.13.64.64,0,0,1-.74-.61,2.19,2.19,0,0,1,.12-.88,4.72,4.72,0,0,1,1-1.63,3.28,3.28,0,0,1,.91-.79,1.33,1.33,0,0,1,.33-.13.3.3,0,0,1,.38.34s0,0,0,0,0,.09.05.1a.13.13,0,0,0,.12,0,.23.23,0,0,0,.08-.12.62.62,0,0,0-.19-.65.88.88,0,0,0-.73-.18,2.2,2.2,0,0,0-.92.38,4.92,4.92,0,0,0-1.46,1.74.54.54,0,0,1-.1.16,7.26,7.26,0,0,1-.83.92,8.62,8.62,0,0,1-1.24,1,1,1,0,0,1-.28.14.38.38,0,0,1-.52-.27.39.39,0,0,1,0-.14,1.59,1.59,0,0,1,.1-.78,13.57,13.57,0,0,1,1.06-2.25l.16-.28c0-.05,0-.06.1-.07.27,0,.54-.05.81-.1l1-.18.18-.07.08-.08a.47.47,0,0,0-.09-.06l-.14,0-1,.05-.65.07s0,0,0,0l.72-1.25a.33.33,0,0,1,.13-.13.89.89,0,0,0,.35-.57.27.27,0,0,0-.17-.33,1.07,1.07,0,0,0-.47-.06.31.31,0,0,0-.23.14c-.05.08-.1.15-.14.23-.33.61-.66,1.22-1,1.83a.2.2,0,0,1-.08.08,2.06,2.06,0,0,1-.26,0,.86.86,0,0,0-.46.14.29.29,0,0,0-.12.32.27.27,0,0,0,.29.14l.28,0c-.13.25-.24.49-.39.72s-.53.73-.8,1.09c-.1.14-.22.27-.32.41A.18.18,0,0,0,12,23c.06.05.13,0,.2-.07l.44-.55.08-.11a.23.23,0,0,1,0,.11,5,5,0,0,0-.4,1.36.79.79,0,0,0,.78.91,1.83,1.83,0,0,0,1.15-.38,9,9,0,0,0,1.52-1.43l0-.05v.07a2.59,2.59,0,0,0,0,.68,1.17,1.17,0,0,0,1.17,1.11A1.9,1.9,0,0,0,18,24.3a4.39,4.39,0,0,0,.75-.68l.09-.09a1.89,1.89,0,0,0,.26.24.79.79,0,0,0,.81,0,2.68,2.68,0,0,0,.78-.59C20.88,23,21,22.88,21.16,22.71ZM40.54,19c0-.1,0-.29,0-.48a3.57,3.57,0,0,0-.56-1.61,3.61,3.61,0,0,0-2-1.47,5.29,5.29,0,0,0-2.68-.11,6.62,6.62,0,0,0-3.57,2,5.4,5.4,0,0,0-1.14,1.8,3.7,3.7,0,0,0-.24,1.35.52.52,0,0,0,.1.34s.07,0,.11.06l.06-.1s0,0,0-.06a3.72,3.72,0,0,1,.21-1,5.89,5.89,0,0,1,1.34-2.1,6.38,6.38,0,0,1,4.22-2,4.34,4.34,0,0,1,1.39.12A2.51,2.51,0,0,1,39.39,17a3.37,3.37,0,0,1,.38,1.73A4.77,4.77,0,0,1,39.59,20,8.44,8.44,0,0,1,37,24.08a4,4,0,0,1-2.7,1.11A2.71,2.71,0,0,1,33,24.9a2.16,2.16,0,0,1-1-1.35,3.86,3.86,0,0,1,0-1.94,5.65,5.65,0,0,1,1.62-2.89,4.53,4.53,0,0,1,2-1.13,1.59,1.59,0,0,1,1.19.13.66.66,0,0,0,.15,0,.58.58,0,0,0-.05-.14,1.21,1.21,0,0,0-.59-.45A2.36,2.36,0,0,0,35,17.08a4.45,4.45,0,0,0-2.69,1.45A4.77,4.77,0,0,0,31.27,23a3.39,3.39,0,0,0,.94,1.64,3.07,3.07,0,0,0,2.18.86A5,5,0,0,0,36.72,25a7.16,7.16,0,0,0,2.81-2.54A6.09,6.09,0,0,0,40.54,19ZM5.3,25l.53,0a8.34,8.34,0,0,0,2-.48,9.51,9.51,0,0,0,2.82-1.52,3.6,3.6,0,0,0,.85-.89,1.52,1.52,0,0,0,.25-.74,1.35,1.35,0,0,0-.39-1,3.42,3.42,0,0,0-1-.71,15.18,15.18,0,0,0-1.85-.8l-1.31-.53A1.18,1.18,0,0,1,6.83,18a.36.36,0,0,1,0-.45A1.3,1.3,0,0,1,7,17.27a4.3,4.3,0,0,1,1-.68A7.33,7.33,0,0,1,10,16a4.37,4.37,0,0,1,1.35-.05,1.34,1.34,0,0,1,.61.23.47.47,0,0,1,.14.6A1.27,1.27,0,0,1,12,17c-.13.15-.26.28-.4.42a.11.11,0,0,0,0,.13.1.1,0,0,0,.13,0l.18-.1a2,2,0,0,0,.71-1.05.7.7,0,0,0-.38-.89L12,15.49a3.73,3.73,0,0,0-1.52-.12,9.09,9.09,0,0,0-2.17.49,5.76,5.76,0,0,0-1.56.8,2.17,2.17,0,0,0-.66.78,1,1,0,0,0,.22,1.19,2.79,2.79,0,0,0,.57.4,12.08,12.08,0,0,0,1.44.59c.58.21,1.16.41,1.73.63a3,3,0,0,1,.87.52.88.88,0,0,1,.22,1.15,2.16,2.16,0,0,1-.71.79,8.21,8.21,0,0,1-2.37,1.13,9.68,9.68,0,0,1-1.7.35,5.05,5.05,0,0,1-1.4,0,1.77,1.77,0,0,1-.86-.32.88.88,0,0,1-.38-.76A1.38,1.38,0,0,1,4,22.37a3.46,3.46,0,0,1,1.07-1.05,3.65,3.65,0,0,1,2-.64.71.71,0,0,0,.23-.06.12.12,0,0,0,.06-.08.17.17,0,0,0-.08-.06.1.1,0,0,0-.09,0,3.62,3.62,0,0,0-.57,0A4.87,4.87,0,0,0,3.7,21.89,2.38,2.38,0,0,0,3,23.52a1.08,1.08,0,0,0,.23.77,1.35,1.35,0,0,0,.67.46A4.32,4.32,0,0,0,5.3,25Zm36.21-1.81h0l.15-.39c.29-.74.59-1.48.88-2.21,0-.07.06-.13.08-.2s0-.21-.14-.24a1.59,1.59,0,0,0-.3-.06.43.43,0,0,0-.45.29c0,.06,0,.11-.05.16l-.18.62-.15.42-1,2.94,0,.15a.48.48,0,0,0,.17,0A6,6,0,0,0,41,24.4a.35.35,0,0,0,.17-.12c.13-.15.26-.31.38-.47L43,22a4.81,4.81,0,0,1,1.12-1,2,2,0,0,1,.33-.16c.11,0,.17,0,.15.13a1.61,1.61,0,0,1-.12.33c-.15.31-.31.61-.44.92a3.88,3.88,0,0,0-.4,1.45.94.94,0,0,0,.17.65.89.89,0,0,0,.78.3,1.92,1.92,0,0,0,1.08-.39,8.2,8.2,0,0,0,1.42-1.34c.2-.23.37-.48.54-.72a.12.12,0,0,0,0-.18.13.13,0,0,0-.18.05,8.94,8.94,0,0,1-1.77,1.76,3.62,3.62,0,0,1-.58.38.39.39,0,0,1-.59-.29,1.26,1.26,0,0,1,0-.64,6.1,6.1,0,0,1,.65-1.69,5.59,5.59,0,0,0,.4-.86,1.14,1.14,0,0,0,.06-.48.31.31,0,0,0-.29-.28A1,1,0,0,0,45,20a2.27,2.27,0,0,0-.82.48A22.22,22.22,0,0,0,42,22.56C41.84,22.75,41.68,23,41.51,23.15Zm-13,7.9h0s0,0,0-.08c-.11-.2-.2-.4-.32-.59L25.85,27a.11.11,0,0,0-.1-.05H24.57v.13a.09.09,0,0,0,.07.12l.43.19a.09.09,0,0,1,.06.09v4.09c0,.05,0,.07-.07.09l-.48.2-.06.06v.18h1.59c0-.2,0-.21-.14-.3s-.28-.12-.42-.18V28.19a.49.49,0,0,0,0-.12c0-.17,0-.34-.05-.51a.12.12,0,0,1,.05.07c.1.18.18.38.29.55l1.57,2.39,1,1.55s0,.05.06.05h.39v-.86c0-1.26,0-2.52,0-3.78,0-.08,0-.1.09-.13l.48-.24a0,0,0,0,0,0,0v-.2H27.9a.53.53,0,0,1,0,.13.12.12,0,0,0,.08.14l.42.21a.1.1,0,0,1,.07.11v2.83a1,1,0,0,0,0,.17ZM30,26.93a.45.45,0,0,1,0,.12c0,.07,0,.11.09.14s.27.12.41.18a.1.1,0,0,1,.07.1q0,2,0,4.08c0,.05,0,.07-.07.09l-.48.2a.07.07,0,0,0,0,.06,1.09,1.09,0,0,0,0,.18H31.5c0-.21,0-.21-.15-.31l-.12-.05-.29-.11V28.43c0-.26,0-.52-.05-.77a.38.38,0,0,1,0-.1.24.24,0,0,1,.06.09c.09.18.17.36.27.52L32.44,30l1.37,2.08s0,.05.07.05h.39V27.54c0-.08,0-.1.09-.13s.32-.15.48-.24a0,0,0,0,0,0,0,1.34,1.34,0,0,0,0-.2h-1.6a.56.56,0,0,1,0,.13.12.12,0,0,0,.08.14l.41.21a.11.11,0,0,1,.08.12c0,.75,0,1.49,0,2.24,0,.35,0,.7,0,1.05v.26a.36.36,0,0,0,0-.09c-.1-.2-.2-.41-.32-.6L31.24,27a.12.12,0,0,0-.11-.05H30ZM22.28,31.6l-.08,0-.58.18s-.05,0-.06.05v.23h2.32v-.2c0-.05,0-.07-.06-.09l-.59-.17c-.06,0-.08,0-.08-.09,0-.43,0-.85,0-1.28V26.36c0-.12,0-.11.11-.14l.55-.18s.06,0,.06-.05v-.24H21.56V26a.18.18,0,0,0,.05.07l.58.18c.07,0,.09,0,.09.12V31.6Z" transform="translate(-2.95 -15.24)"/><path d="M21.16,22.71c-.15.17-.28.33-.43.49a2.68,2.68,0,0,1-.78.59.79.79,0,0,1-.81,0,1.89,1.89,0,0,1-.26-.24l-.09.09a4.39,4.39,0,0,1-.75.68,1.9,1.9,0,0,1-1.11.3,1.17,1.17,0,0,1-1.17-1.11,2.59,2.59,0,0,1,0-.68v-.07l0,.05a9,9,0,0,1-1.52,1.43,1.83,1.83,0,0,1-1.15.38.79.79,0,0,1-.78-.91,5,5,0,0,1,.4-1.36.23.23,0,0,0,0-.11l-.08.11-.44.55c-.07.1-.14.12-.2.07a.18.18,0,0,1,0-.24c.1-.14.22-.27.32-.41.27-.36.55-.72.8-1.09s.26-.47.39-.72l-.28,0a.27.27,0,0,1-.29-.14.29.29,0,0,1,.12-.32.86.86,0,0,1,.46-.14,2.06,2.06,0,0,0,.26,0,.2.2,0,0,0,.08-.08c.34-.61.67-1.22,1-1.83,0-.08.09-.15.14-.23a.31.31,0,0,1,.23-.14,1.07,1.07,0,0,1,.47.06.27.27,0,0,1,.17.33.89.89,0,0,1-.35.57.33.33,0,0,0-.13.13l-.72,1.25s0,0,0,0l.65-.07,1-.05.14,0a.47.47,0,0,1,.09.06l-.08.08-.18.07-1,.18c-.27,0-.54.07-.81.1-.05,0-.08,0-.1.07l-.16.28A13.57,13.57,0,0,0,13.16,23a1.59,1.59,0,0,0-.1.78.39.39,0,0,0,0,.14.38.38,0,0,0,.52.27,1,1,0,0,0,.28-.14,8.62,8.62,0,0,0,1.24-1,7.26,7.26,0,0,0,.83-.92.54.54,0,0,0,.1-.16,4.92,4.92,0,0,1,1.46-1.74,2.2,2.2,0,0,1,.92-.38.88.88,0,0,1,.73.18.62.62,0,0,1,.19.65.23.23,0,0,1-.08.12.13.13,0,0,1-.12,0s0-.06-.05-.1,0,0,0,0a.3.3,0,0,0-.38-.34,1.33,1.33,0,0,0-.33.13,3.28,3.28,0,0,0-.91.79,4.72,4.72,0,0,0-1,1.63,2.19,2.19,0,0,0-.12.88.64.64,0,0,0,.74.61,1.51,1.51,0,0,0,.41-.13,3.14,3.14,0,0,0,1.07-1,.09.09,0,0,0,0-.07.46.46,0,0,1,0-.38.29.29,0,0,1,.32-.18l.06,0a2.35,2.35,0,0,0,.27-.81,1,1,0,0,0-.06-.45c-.08-.2,0-.35.15-.42a.34.34,0,0,1,.46.21,1.26,1.26,0,0,1,0,.77,4.19,4.19,0,0,1-.6,1.24.19.19,0,0,0,0,.12.37.37,0,0,0,.48.33,1.41,1.41,0,0,0,.66-.35,8.47,8.47,0,0,0,1-1.13,1.52,1.52,0,0,0,.23-.5,9.82,9.82,0,0,0,.45-1.49,2.23,2.23,0,0,0,.05-.36.15.15,0,0,1,.11-.15.94.94,0,0,1,.7,0c.15.05.21.2.17.39a1.55,1.55,0,0,1-.26.57,9,9,0,0,0-.54,1c-.11.25-.21.5-.31.75a.07.07,0,0,0,0,0l.29-.4a6.7,6.7,0,0,1,.85-1.06,3,3,0,0,1,1.13-.73,1.57,1.57,0,0,1,1.22.08.84.84,0,0,1,.53.93,2.37,2.37,0,0,1-.5,1.24,5.44,5.44,0,0,1-2.13,1.7,5.3,5.3,0,0,1-1.41.46,2,2,0,0,1-.8,0c-.06,0-.07,0-.09,0l-.57,1.56c-.11.31-.21.63-.32.95a1.37,1.37,0,0,0-.08.53,1.45,1.45,0,0,1-.1.55c-.13.35-.26.69-.4,1a.38.38,0,0,1-.11.14,1.68,1.68,0,0,1-.77.31c-.09,0-.18,0-.24-.06s0-.17,0-.25c.23-.51.47-1,.67-1.53.67-1.68,1.33-3.35,2-5A.31.31,0,0,0,21.16,22.71Zm.07,1.55h.1a3.06,3.06,0,0,0,1.15-.34,6.16,6.16,0,0,0,1.76-1.32A4.38,4.38,0,0,0,25,21.52a1.5,1.5,0,0,0,.19-.78.39.39,0,0,0-.48-.4,1.7,1.7,0,0,0-.4.13,4.79,4.79,0,0,0-1.95,1.67,13.33,13.33,0,0,0-.92,1.65C21.38,23.94,21.31,24.1,21.23,24.26Z" transform="translate(-2.95 -15.24)"/><path d="M40.54,19a6.09,6.09,0,0,1-1,3.38A7.16,7.16,0,0,1,36.72,25a5,5,0,0,1-2.33.59,3.07,3.07,0,0,1-2.18-.86A3.39,3.39,0,0,1,31.27,23a4.77,4.77,0,0,1,1.07-4.51A4.45,4.45,0,0,1,35,17.08a2.36,2.36,0,0,1,1.21.08,1.21,1.21,0,0,1,.59.45.58.58,0,0,1,.05.14.66.66,0,0,1-.15,0,1.59,1.59,0,0,0-1.19-.13,4.53,4.53,0,0,0-2,1.13,5.65,5.65,0,0,0-1.62,2.89,3.86,3.86,0,0,0,0,1.94,2.16,2.16,0,0,0,1,1.35,2.71,2.71,0,0,0,1.37.29A4,4,0,0,0,37,24.08,8.44,8.44,0,0,0,39.59,20a4.77,4.77,0,0,0,.18-1.24A3.37,3.37,0,0,0,39.39,17a2.51,2.51,0,0,0-1.66-1.25,4.34,4.34,0,0,0-1.39-.12,6.38,6.38,0,0,0-4.22,2,5.89,5.89,0,0,0-1.34,2.1,3.72,3.72,0,0,0-.21,1s0,.05,0,.06l-.06.1s-.09,0-.11-.06a.52.52,0,0,1-.1-.34,3.7,3.7,0,0,1,.24-1.35,5.4,5.4,0,0,1,1.14-1.8,6.62,6.62,0,0,1,3.57-2,5.29,5.29,0,0,1,2.68.11,3.61,3.61,0,0,1,2,1.47,3.57,3.57,0,0,1,.56,1.61C40.53,18.74,40.53,18.93,40.54,19Z" transform="translate(-2.95 -15.24)"/><path d="M5.3,25a4.32,4.32,0,0,1-1.44-.21,1.35,1.35,0,0,1-.67-.46A1.08,1.08,0,0,1,3,23.52a2.38,2.38,0,0,1,.74-1.63,4.87,4.87,0,0,1,2.86-1.41,3.62,3.62,0,0,1,.57,0,.1.1,0,0,1,.09,0,.17.17,0,0,1,.08.06.12.12,0,0,1-.06.08.71.71,0,0,1-.23.06,3.65,3.65,0,0,0-1.95.64A3.46,3.46,0,0,0,4,22.37a1.38,1.38,0,0,0-.25.76.88.88,0,0,0,.38.76,1.77,1.77,0,0,0,.86.32,5.05,5.05,0,0,0,1.4,0,9.68,9.68,0,0,0,1.7-.35,8.21,8.21,0,0,0,2.37-1.13,2.16,2.16,0,0,0,.71-.79.88.88,0,0,0-.22-1.15,3,3,0,0,0-.87-.52c-.57-.22-1.15-.42-1.73-.63A12.08,12.08,0,0,1,6.9,19a2.79,2.79,0,0,1-.57-.4,1,1,0,0,1-.22-1.19,2.17,2.17,0,0,1,.66-.78,5.76,5.76,0,0,1,1.56-.8,9.09,9.09,0,0,1,2.17-.49,3.73,3.73,0,0,1,1.52.12l.16.07a.7.7,0,0,1,.38.89,2,2,0,0,1-.71,1.05l-.18.1a.1.1,0,0,1-.13,0,.11.11,0,0,1,0-.13c.14-.14.27-.27.4-.42a1.27,1.27,0,0,0,.18-.27.47.47,0,0,0-.14-.6,1.34,1.34,0,0,0-.61-.23A4.37,4.37,0,0,0,10,16a7.33,7.33,0,0,0-2,.62,4.3,4.3,0,0,0-1,.68,1.3,1.3,0,0,0-.18.23.36.36,0,0,0,0,.45,1.18,1.18,0,0,0,.43.31l1.31.53a15.18,15.18,0,0,1,1.85.8,3.42,3.42,0,0,1,1,.71,1.35,1.35,0,0,1,.39,1,1.52,1.52,0,0,1-.25.74,3.6,3.6,0,0,1-.85.89,9.51,9.51,0,0,1-2.82,1.52,8.34,8.34,0,0,1-2,.48Z" transform="translate(-2.95 -15.24)"/><path d="M41.51,23.15c.17-.2.33-.4.51-.59a22.22,22.22,0,0,1,2.11-2.12A2.27,2.27,0,0,1,45,20a1,1,0,0,1,.33-.05.31.31,0,0,1,.29.28,1.14,1.14,0,0,1-.06.48,5.59,5.59,0,0,1-.4.86,6.1,6.1,0,0,0-.65,1.69,1.26,1.26,0,0,0,0,.64.39.39,0,0,0,.59.29,3.62,3.62,0,0,0,.58-.38A8.94,8.94,0,0,0,47.39,22a.13.13,0,0,1,.18-.05.12.12,0,0,1,0,.18c-.17.24-.34.49-.54.72a8.2,8.2,0,0,1-1.42,1.34,1.92,1.92,0,0,1-1.08.39.89.89,0,0,1-.78-.3.94.94,0,0,1-.17-.65,3.88,3.88,0,0,1,.4-1.45c.13-.31.29-.61.44-.92a1.61,1.61,0,0,0,.12-.33c0-.11,0-.16-.15-.13a2,2,0,0,0-.33.16A4.81,4.81,0,0,0,43,22l-1.39,1.8c-.12.16-.25.32-.38.47a.35.35,0,0,1-.17.12,6,6,0,0,1-.59.22.48.48,0,0,1-.17,0l0-.15,1-2.94.15-.42.18-.62s0-.1.05-.16a.43.43,0,0,1,.45-.29,1.59,1.59,0,0,1,.3.06c.13,0,.17.11.14.24s-.06.13-.08.2c-.29.73-.59,1.47-.88,2.21l-.15.39Z" transform="translate(-2.95 -15.24)"/><path d="M28.5,31.05l0-.53a1,1,0,0,1,0-.17V27.52a.1.1,0,0,0-.07-.11L28,27.2a.12.12,0,0,1-.08-.14.53.53,0,0,0,0-.13h1.59v.2a0,0,0,0,1,0,0l-.48.24c-.06,0-.09.05-.09.13,0,1.26,0,2.52,0,3.78v.86h-.39s0,0-.06-.05l-1-1.55-1.57-2.39c-.11-.17-.19-.37-.29-.55a.12.12,0,0,0-.05-.07c0,.17,0,.34.05.51a.49.49,0,0,1,0,.12V31.6c.14.06.28.11.42.18s.17.1.14.3H24.52V31.9l.06-.06.48-.2s.07,0,.07-.09V27.46a.09.09,0,0,0-.06-.09l-.43-.19a.09.09,0,0,1-.07-.12v-.13h1.18a.11.11,0,0,1,.1.05l2.26,3.41c.12.19.21.39.32.59,0,0,0,.05,0,.08Z" transform="translate(-2.95 -15.24)"/><path d="M30,26.93h1.17a.12.12,0,0,1,.11.05l2.26,3.41c.12.19.22.4.32.6a.36.36,0,0,1,0,.09v-.26c0-.35,0-.7,0-1.05,0-.75,0-1.49,0-2.24a.11.11,0,0,0-.08-.12l-.41-.21a.12.12,0,0,1-.08-.14.56.56,0,0,0,0-.13h1.6a1.34,1.34,0,0,1,0,.2,0,0,0,0,1,0,0q-.24.13-.48.24c-.06,0-.09.05-.09.13v4.64h-.39s-.05,0-.07-.05L32.44,30l-1.23-1.87c-.1-.16-.18-.34-.27-.52a.24.24,0,0,0-.06-.09.38.38,0,0,0,0,.1c0,.25.05.51.05.77v3.18l.29.11.12.05c.17.1.17.1.15.31H29.91a1.09,1.09,0,0,1,0-.18.07.07,0,0,1,0-.06l.48-.2c.05,0,.07,0,.07-.09q0-2,0-4.08a.1.1,0,0,0-.07-.1c-.14-.06-.27-.13-.41-.18s-.1-.07-.09-.14A.45.45,0,0,0,30,26.93Z" transform="translate(-2.95 -15.24)"/><path d="M22.28,31.6V26.34c0-.08,0-.1-.09-.12L21.61,26a.18.18,0,0,1-.05-.07v-.22h2.32V26s0,0-.06.05l-.55.18c-.11,0-.11,0-.11.14v3.89c0,.43,0,.85,0,1.28,0,.06,0,.08.08.09l.59.17c.05,0,.07,0,.06.09v.2H21.56v-.23s0-.05.06-.05l.58-.18Z" transform="translate(-2.95 -15.24)"/></svg>