<svg id="svg2" xmlns="http://www.w3.org/2000/svg" viewBox="0 0 673.63 719.97"><defs><style>.cls-1,.cls-3{fill:none;}.cls-1{stroke:#072d00;stroke-width:3.48px;fill-rule:evenodd;}.cls-2{fill:#fff;}.cls-3{stroke:#000;stroke-miterlimit:10;stroke-width:3px;}.cls-4{opacity:0.56;}</style></defs><title>WI-Icon</title><g id="layer1"><path id="path1996" class="cls-1" d="M306.91,809.65s.85-4.66-.21-5.93-3.38-6.77-3-8.67-6.14-6.56-6.14-6.56S284.91,783,279,782.77s-16.29-6.56-17.14-8.46-7-11.43-5.71-16.51-3.81-8.67-3.81-8.67-4.45-22.22-4-25.4-1.27-9.1-1.27-9.1,1.9-9.73,3.59-11.85,5.93-6.56,5.93-6.56l3-6.77s-.63-11.43-6.77-12.27-8-14.39-8-14.39l.42-9.1-3-4.45.21-11s-2.75-14-1.27-15.45.85-5.08.85-5.08-3.92-19.16-4.55-20.22,1-5.27,1-5.27c0-4.16-3.36-3-5.81-3.07,0,0-16.3-16.51-17.78-16.93S202,569,202,569l-9.52-9.73s-.42-6.77-5.71-4.45-9.1-7.83-9.1-7.83-6.77-10.58-6.56-11.64-2.75-6.13-2.75-6.13l.21-5.08-3.81-2.33s-.21-6.56-4.87-4.65-10.79-6.56-10.79-6.56L137,506.4s-10.16-9.52-10.8-14.39-15.44-7-15.44-7l-9.53-1.27s-.63-4.23-4-4.23-4.65-5.5-4.65-5.5l-4.66-3.18-9.1-11.43-4.86-.84s-4.87-3-1.27-8.47,3.59-8.46,3.59-8.46l2.54-1.27s-2.75-3-2.33-5.71,4-8.68,4-8.68L79,422.39l-1.9.85.63-10.16s-3.8-4.65-3.38-7.19,5.29-5.08,5.29-6.56v-7.2s-3.18-5.08-1.91-8,0-13.12,0-13.12l9.32-7.41s-4.24-3-.43-5.92,7.83-5.5,7.2-7.62-2.75-4.44-3.39-5.29-3.6-1.91-3.17-4.66-1.7-7-1.7-7l-4-3.81s-1.48-3.17-4.23-1.27-6.77-3.38-6.77-3.38-3-8.05-1.69-11.22S71.39,309,71,308.12s-1.48-3.17-.21-4.87S77.31,299,77.31,299s3.39-7.62,5.08-7-1.69-4.66-1.69-4.66,4-2.33,4.44-3.6.85-5.08,2.54-5.08,6.14-5.07,7.83-4.44.63-3.17.63-3.17l10.59-4s.21-3.6,3.38-2.76a5.7,5.7,0,0,0,5.29-1.26s4.66-6.56,6.77-6.35a9,9,0,0,1,4,1.69l4.87-.42s-2.54-6.78.42-7.41,2.12-1.48,2.12-1.48l3.6-89.73,2.11-1,1.49,3.17,7.83.85s1.27-3,3.17-3,5.29-3.38,4.23-4.65,5.29-8,6.56-6.56,11.85,12.06,13.55,12.06,5.92-2.54,7.19-2.12,5.29-1.9,7.62-1.27,7.19-3.17,9.31-2.32,7-3.18,10-2.75,3.17-2.76,3.17-2.76,1.48-.42,6.14-.21,10.15-3.59,12.27-3,3.17-3.17,3.17-3.17l1.7,2.32,3-.42s1.48-4.44,4.44-4.66,6.14-2.32,7.83-2.32,5.08-7.62,6.35-6.77.64,4.23.64,4.23a16.67,16.67,0,0,1,4.86-1.06c2.12,0,6.78.63,6.78.63l-.85-4.86s1.69-1.91,2.75-.85a4.07,4.07,0,0,0,3,.85l1.27-3.81s5.93-1.27,6.14-3.39,2.33-.63,2.33-.63l1.24,1.74s-.71-3.14,1.09-2.59c2.06.63,5.92-3.38,5.92-3.38l3.81-1.27s-.63,4.23,1.27,4.44,4,.63,4,.63,1.69,2.33,1.48,4,2.33,2.33,2.33,2.33a2,2,0,0,0-1.27,1.91c0,1.48-1.27,4-1.48,6.13S300.35,139,299.3,139s2.11,2.33.63,4.44-4.87,2.33-4.87,3.39-.84,2.33-2.32,3.38,4,8.26,2.11,9.95-6.13,4.23-5.92,5.29-1.7,6.56-2.75,6.35-1.27,4.87-1.27,4.87,4.44-.43,5.92-1.49,4.45-4.44,8-4.23,6.77-5.29,8.68-4.44A9.13,9.13,0,0,0,312,167l-4.65-5.5s2.11-2.33,4,.21,3.38,5.93,4.65,7.2.85,1.9,2.75,3.38,8.68,4,8.68,4l5.29-.21,5.72,3.39,3.8.63s-.21,4.45,2.76,3.81,3.38-2.12,5.29-1.69,4.44,4.65,4.44,4.65,2.75-1.05,2.75,1.48,5.5.22,6.14,3.39,3.38,4.44,2.33,6.14,3.8,7.4,3.8,7.4,3.39,3.6,2.76,5.08.21,4.87.21,4.87l113,31.53,23.7,13.12,3.17-1.06,2.76,2.54,3.38.21,1.48.85,1.06,1.27,5.08-.42s6.77,3.17,8.68,3.17,6.77-1.69,7-2.54,6.14,0,6.14,0,4.86.85,4.44,2.54,4.44-.21,5.71,2.33,6.14,1.69,6.14,1.69,2.54-2.54,4.23-.84,9.53,4.44,9.53,4.44a4.43,4.43,0,0,1,3.8,1.69c1.27,1.91,3.18-1.27,3.18-1.27s4.65-.84,5.5.85,3.6.42,3.81,2.75a23.61,23.61,0,0,1,0,4.23l3.17,4.66s-3,3.81-4.65,3.81-2.75,5.08-.42,5.29,6.56,3.38,6.56,3.38,3.8-.84,4.86-2.11,4.24.84,3.6,3,4,5.71,6.35,4,6.14-.85,6.35.85-1.27,1.48.84,3.59,7.62,8.47,7.62,8.47-1.27,1.69-2.75.85-.21,6.34-.21,6.34l3.6,2.12,1.06,6.56s-1.49,2.75-2.76,1.27-3.59-.21-2.32,2.54a8.08,8.08,0,0,0,2.75,3.6s-.85,3.38,0,5.08-1.06,5.29-3.81,6.77-1.91,7-1.91,7l-1.9,2.75s1.27,3,2.12,4.45,5.5-3,7.4-.85,5.08,1.69,5.08,1.69A4.4,4.4,0,0,0,637,365c.63-1.69,2.32-1.48,3.17-1.27s1.48-3,3-1,.64,1.69,1.48,2.75,1.06,4.65-.63,6.13-1.69,4.45-2.75,5.72-2.54.84-2.33,4,1.27,2.33-.64,3.81-.84,5.08-.84,5.08-2.33,0-1.91,1.9,4,3.81,4.45,5.71,6.56,7.62,6.56,7.62l5.92-.42s1.7,2.33-1.69,4.87-2.12,12.91-2.12,12.91-7,4.23-11.21,4-12.7,5.71-12.28,7.4,2.54,4.87.85,6.14-3,5.08-2.75,6.35-3,.84-3,.84-6.35,14.82-8.26,15.24-3.17,15.45-4.44,15.66,3.6,4.87,3.6,4.87.21,4-1.27,2.54-3.81-1.06-3.6.21-3.17-.42-2.33,2.11a70.57,70.57,0,0,1,1.7,7s3.17-1.91,5.92-.64,6.56-4.65,7.2-8.67,10.37-7.83,10.37-7.83,3.17,1.06,4,.63,6.34-12.48,6.13-15,7.83-8,7.83-10.16,5.72-8.89,7.41-7.83,3-1.69,3-1.69-.63,2.75.64,3.17.42-.85,1.9-3,3.18-2.75,5.29-1.27,4.87-5.5,4.87-5.5a12.93,12.93,0,0,1,.85,4.86c0,3,3.8,5.51,3.8,5.51s3,.42,4.45,1.9,3.38.42,3.17,3-4.65,21-9.31,26.67-5.5,16.93-5.5,16.93-2.33,4-2.33,7.4-2.75,8.26-2.75,11.22-3.81,10.58-3.17,13.75,3.17,11.85,4,13.12-1.7,10.37-3.39,11.64-12.06,7.41-12.27,11.85-1.91,8.47-2.75,9.53-.85,3.8-.64,5.5-1.27,3.17-1.9,4.86-1.27,2.12-1.27,5.08S640,605,640.84,607.77s3.81,5.92,2.76,8.46-1.49,12.28-1.49,12.28-2.32,4-2.75,6.34-5.5,7.83-5.71,9.1-.42,19.26-3.81,23.28-5.29,6.56-5.29,10.58S622,688.39,620.74,689s1.69,14.81,1.69,14.81,2.33,1.27,1.06,4.23.85,10.37,1.48,11.43.43,5.08-.84,5.5-.43,7.41.63,7.62,4.23,4,3.6,5.29,1.69,4,1.69,4,.43,7.83-1.06,8.68,1.7,8.25,4.45,11.21,4.65,5.51,2.75,8.26.63,4.23.63,4.23-1.27,8.89-3.17,10.16,1.27,29.2,1.27,29.2l-1.06.21C524.88,814.65,415.9,811.44,306.91,809.65Z" transform="translate(-66.79 -95.77)"/><path id="path2886" class="cls-1" d="M683.83,450.43l-8.92-7.94s2.11-6.15,0-7.94,6.16-15.71,6.16-15.71,2.11-7.62,4.86-8.43,3.57-12.47,3.57-12.47,3.24-4.21,2.43-5.19,4.86,1.79,4.53,3.24.81,2.43,1.46,1.79-1.94-5.51.81-6.81a29.39,29.39,0,0,0,5.19-3.24s.16-6.48.64-7.29,2.43,0,3.08-.65,1.14-8.58,2.27-7.61,3.89,3.72,3.89,3.72l5.83-1s-1.13,3.73-.48,5.35a8.6,8.6,0,0,1,0,4.21s.16,3.89-.81,3.57-2.92-4.22-2.92-4.22-2.43-4-2.92-3.24a4.23,4.23,0,0,0,.65,4c1,1,.49,10.37-.32,10.37s1.13,3.73,1.13,3.73-2.43-3.89-3.08-3.4.33,5.18,1,6,0,6.64-.81,5.51-2.91-2.92-3.07-1.94,1,4.86,1,4.86-2.43,1.45-3.08.16-1.94,4.37-1.94,4.37-6.32,5-5.51,8.43a36.6,36.6,0,0,1,.81,7.29s-1,1.29-2.11,2.59-3.24,1.94-2.75,3.24,2.59,3.57.65,4.54-3.25-.49-3.73,1.94-2.11,3.4-3.24,2.43-1.78-.32-1.3,1S685.12,451.57,683.83,450.43Z" transform="translate(-66.79 -95.77)"/><path id="path3773" class="cls-1" d="M679.13,388.22s-2.11,2.27-3.24,2.27,2.1,5.34,2.1,5.34,3.89.49,4-1-1.29-.81-1.45-2.59S679.61,388.54,679.13,388.22Z" transform="translate(-66.79 -95.77)"/><path id="path4662" class="cls-1" d="M721.9,363.27s0-2.76-.81-3.57,1.62-1.46,1.62-1.46l.49-4.53s1,4.05,2.43,3.56,5.34-1.94,6.15.65,2,2.27,2,2.27-2.27.81-2.27,2.27a4.08,4.08,0,0,0,.81,2.43s-2.76-1.14-2.43.81a3,3,0,0,0,1.46,2.43s-3.57-1-4.54-.81-1.78-4.05-2.75-2.59a13.75,13.75,0,0,1-2.11,2.43S720.77,363.92,721.9,363.27Z" transform="translate(-66.79 -95.77)"/><path id="path5549" class="cls-1" d="M737.29,354.36s-5.18-.81-2.75,1.94,3.89,1.13,3.89,1.13Z" transform="translate(-66.79 -95.77)"/><path id="path6436" class="cls-1" d="M282,115.22s.17-2.76,1.79-2.59,2.91-2.6,3.24-1.46-.33,3.56.16,4.21-2.92-1-3.57-.16A1.12,1.12,0,0,1,282,115.22Z" transform="translate(-66.79 -95.77)"/><path id="path6438" class="cls-1" d="M308.27,116s-1.78,3.89-2.75,3.89,2.26,2.91,3.72,3.56,5.19.65,5-1.13-1-3.89-2.1-3.57S308.92,115.54,308.27,116Z" transform="translate(-66.79 -95.77)"/><path id="path6440" class="cls-1" d="M306.49,110.36l1.78-1.14s-2.59-6-2.75-4.21S306.81,110.52,306.49,110.36Z" transform="translate(-66.79 -95.77)"/><path id="path6442" class="cls-1" d="M312,111.49c0-1.13-.17-3.56,1.45-2.59s1.95,1.62.81,2.59-1.62,2.27-2.1,1.46S311.51,111.17,312,111.49Z" transform="translate(-66.79 -95.77)"/><path id="path6444" class="cls-1" d="M310.86,131.58l-.81-2.43s-4.7,4.38-3.08,6S311,131.91,310.86,131.58Z" transform="translate(-66.79 -95.77)"/><path id="path6446" class="cls-1" d="M314.91,135.47c1.95-.32,4.86-1.62,4.86-2.92s1-1.62,2-.81,5.51,1.62,4,2.6-2.11,1.94-2.92,1.29-3.89,2.43-3.89,2.43a4.93,4.93,0,0,1-2.75.33C314.26,138.22,313.29,136.28,314.91,135.47Z" transform="translate(-66.79 -95.77)"/><path id="path6448" class="cls-1" d="M313.13,138.39c2.43,3.24,3.08,3.08,4.37,3.08s1.46,1.62.17,2.75-2.27,1.46-5.51,1.62-3.73.49-4.21,2.11-3.24,4.53-3.73,2.43-.81-4,.16-5,2.11-1.62.49-1.62-2.11-1.13.81-1.78a7.81,7.81,0,0,0,4.86-2.91C311.35,138.06,312.48,137.58,313.13,138.39Z" transform="translate(-66.79 -95.77)"/><path id="path6450" class="cls-1" d="M334,130.29a3,3,0,0,1,.65,2.1s5.18-4,5.18-5.18a18.53,18.53,0,0,0-.16-2.27,29.89,29.89,0,0,0-2.43,2.43,19.85,19.85,0,0,1-4,2.92Z" transform="translate(-66.79 -95.77)"/><path id="path6452" class="cls-1" d="M338.24,110.84s1.46-5.34.65-6.8,3.89-6,3.89-6l1.3.49s1.62-1.78,1.94-.65a4.35,4.35,0,0,1-.81,3.73c-.81.81-.32,3.4.32,4.37S339.05,111.65,338.24,110.84Z" transform="translate(-66.79 -95.77)"/><path id="path7339" class="cls-1" d="M317.5,123.16s1.46-4.86,3.08-4.54,3.41-2.11,4.7-1.46,1.62-1.62,2.76-.81,3.88-1.62,4-.32-.65,4.54-1.79,5-1.13,4.7-1.94,2.92-3.08-2-3.4-.65-1.62-.16-4.21.32-1.46,2.6-2.27,2.11S316.05,123.48,317.5,123.16Z" transform="translate(-66.79 -95.77)"/><path id="path7341" class="cls-1" d="M318.48,113.11s-2.92,1.78-2.6,3.08,3.41.32,3.73-.32S318.32,112.63,318.48,113.11Z" transform="translate(-66.79 -95.77)"/><path id="path7343" class="cls-1" d="M322.2,109.06s-2.26.16-1.62,1.46a3.36,3.36,0,0,0,2.11,1.62S324.31,110,322.2,109.06Z" transform="translate(-66.79 -95.77)"/><path id="path7345" class="cls-1" d="M326.74,105.66c-1.13,1.13-1.46.16-.49,1.94s1.46,2,1,3.41,2.1,1.62,2.43.64a3.65,3.65,0,0,0-.17-3.4C328.68,107.12,327.87,104.69,326.74,105.66Z" transform="translate(-66.79 -95.77)"/><path id="path7347" class="cls-1" d="M315.4,102.1c-2.11,2.26-3.89,4.21-2.27,4.86a2.49,2.49,0,0,0,3.24-1.79C316.69,104,315.88,102.26,315.4,102.1Z" transform="translate(-66.79 -95.77)"/></g><polyline class="cls-2" points="282.48 292.87 328.4 292.87 328.4 302.51 336.62 302.51 336.62 331.71 327.55 331.71 327.83 370.26 332.08 370.26 332.08 374.79 348.24 374.79 348.24 389.53 326.41 389.53 326.41 392.65 314.23 392.65 311.67 398.89"/><polyline class="cls-3" points="69.09 127.88 231.7 127.88 231.7 162.01 260.81 162.01 260.81 265.4 228.69 265.4 229.69 401.91 244.75 401.91 244.75 417.97 301.96 417.97 301.96 470.17 224.67 470.17 224.67 481.21 181.51 481.21 172.48 503.29"/><rect class="cls-4" x="86.1" y="227.48" width="60.92" height="60.92"/></svg>